<?xml version="1.0" encoding="utf-8" standalone="no"?>
<!DOCTYPE svg PUBLIC "-//W3C//DTD SVG 1.1//EN"
  "http://www.w3.org/Graphics/SVG/1.1/DTD/svg11.dtd">
<svg xmlns:xlink="http://www.w3.org/1999/xlink" width="527.76pt" height="524.448pt" viewBox="0 0 527.76 524.448" xmlns="http://www.w3.org/2000/svg" version="1.1">
 <metadata>
  <rdf:RDF xmlns:dc="http://purl.org/dc/elements/1.1/" xmlns:cc="http://creativecommons.org/ns#" xmlns:rdf="http://www.w3.org/1999/02/22-rdf-syntax-ns#">
   <cc:Work>
    <dc:type rdf:resource="http://purl.org/dc/dcmitype/StillImage"/>
    <dc:date>2026-06-29T19:27:28.598711</dc:date>
    <dc:format>image/svg+xml</dc:format>
    <dc:creator>
     <cc:Agent>
      <dc:title>Matplotlib v3.10.8, https://matplotlib.org/</dc:title>
     </cc:Agent>
    </dc:creator>
   </cc:Work>
  </rdf:RDF>
 </metadata>
 <defs>
  <style type="text/css">*{stroke-linejoin: round; stroke-linecap: butt}</style>
 </defs>
 <g id="figure_1">
  <g id="patch_1">
   <path d="M 0 524.448 
L 527.76 524.448 
L 527.76 0 
L 0 0 
z
" style="fill: #ffffff"/>
  </g>
  <g id="axes_1">
   <g id="patch_2">
    <path d="M 172.796369 106.971837 
Q 146.235145 124.510944 121.166691 141.064335 
" clip-path="url(#p95e02a62b8)" style="fill: none; stroke: #6b7488; stroke-width: 1.6; stroke-linecap: round"/>
    <path d="M 128.270692 140.208074 
L 121.166691 141.064335 
L 124.744083 134.867378 
z
" clip-path="url(#p95e02a62b8)" style="fill: #6b7488; stroke: #6b7488; stroke-width: 1.6; stroke-linecap: round"/>
   </g>
   <g id="patch_3">
    <path d="M 214.022068 108.315668 
Q 213.078613 124.513393 212.239175 138.92529 
" clip-path="url(#p95e02a62b8)" style="fill: none; stroke: #6b7488; stroke-width: 1.6; stroke-linecap: round"/>
    <path d="M 215.805906 132.722191 
L 212.239175 138.92529 
L 209.416734 132.350046 
z
" clip-path="url(#p95e02a62b8)" style="fill: #6b7488; stroke: #6b7488; stroke-width: 1.6; stroke-linecap: round"/>
   </g>
   <g id="patch_4">
    <path d="M 259.505783 106.953095 
Q 286.608923 124.512367 312.210749 141.098984 
" clip-path="url(#p95e02a62b8)" style="fill: none; stroke: #6b7488; stroke-width: 1.6; stroke-linecap: round"/>
    <path d="M 308.579421 134.933479 
L 312.210749 141.098984 
L 305.099548 140.304743 
z
" clip-path="url(#p95e02a62b8)" style="fill: #6b7488; stroke: #6b7488; stroke-width: 1.6; stroke-linecap: round"/>
   </g>
   <g id="patch_5">
    <path d="M 190.274165 199.600758 
Q 176.981751 218.871911 164.705031 236.670527 
" clip-path="url(#p95e02a62b8)" style="fill: none; stroke: #6b7488; stroke-width: 1.6; stroke-linecap: round"/>
    <path d="M 170.973041 233.219143 
L 164.705031 236.670527 
L 165.70473 229.585288 
z
" clip-path="url(#p95e02a62b8)" style="fill: #6b7488; stroke: #6b7488; stroke-width: 1.6; stroke-linecap: round"/>
   </g>
   <g id="patch_6">
    <path d="M 166.422765 296.398428 
Q 179.657794 313.229969 191.7871 328.655316 
" clip-path="url(#p95e02a62b8)" style="fill: none; stroke: #6b7488; stroke-width: 1.6; stroke-linecap: round"/>
    <path d="M 190.346624 321.646392 
L 191.7871 328.655316 
L 185.315675 325.602343 
z
" clip-path="url(#p95e02a62b8)" style="fill: #6b7488; stroke: #6b7488; stroke-width: 1.6; stroke-linecap: round"/>
   </g>
   <g id="patch_7">
    <path d="M 143.56125 297.038434 
Q 143.56125 355.10748 143.56125 411.387671 
" clip-path="url(#p95e02a62b8)" style="fill: none; stroke: #6b7488; stroke-width: 1.6; stroke-linecap: round"/>
    <path d="M 146.76125 404.987671 
L 143.56125 411.387671 
L 140.36125 404.987671 
z
" clip-path="url(#p95e02a62b8)" style="fill: #6b7488; stroke: #6b7488; stroke-width: 1.6; stroke-linecap: round"/>
   </g>
   <g id="patch_8">
    <path d="M 335.598762 199.530285 
Q 286.606328 264.774968 238.688034 328.589187 
" clip-path="url(#p95e02a62b8)" style="fill: none; stroke: #6b7488; stroke-width: 1.6; stroke-linecap: round"/>
    <path d="M 245.089881 325.392885 
L 238.688034 328.589187 
L 239.972101 321.549928 
z
" clip-path="url(#p95e02a62b8)" style="fill: #6b7488; stroke: #6b7488; stroke-width: 1.6; stroke-linecap: round"/>
   </g>
   <g id="patch_9">
    <path d="M 190.884713 388.123077 
Q 179.828712 401.011759 169.937402 412.542686 
" clip-path="url(#p95e02a62b8)" style="fill: none; stroke: #6b7488; stroke-width: 1.6; stroke-linecap: round"/>
    <path d="M 176.53315 409.768501 
L 169.937402 412.542686 
L 171.675502 405.601576 
z
" clip-path="url(#p95e02a62b8)" style="fill: #6b7488; stroke: #6b7488; stroke-width: 1.6; stroke-linecap: round"/>
   </g>
   <g id="patch_10">
    <path d="M 263.308811 387.375838 
Q 286.269633 401.011799 307.692387 413.734333 
" clip-path="url(#p95e02a62b8)" style="fill: none; stroke: #6b7488; stroke-width: 1.6; stroke-linecap: round"/>
    <path d="M 303.823617 407.714979 
L 307.692387 413.734333 
L 300.555642 413.217737 
z
" clip-path="url(#p95e02a62b8)" style="fill: #6b7488; stroke: #6b7488; stroke-width: 1.6; stroke-linecap: round"/>
   </g>
   <g id="patch_11">
    <path d="M 428.204365 362.695616 
Q 405.721698 388.309416 384.566606 412.410753 
" clip-path="url(#p95e02a62b8)" style="fill: none; stroke-dasharray: 9,5.4; stroke-dashoffset: 0; stroke: #dd9430; stroke-width: 1.8; stroke-linecap: round"/>
    <path d="M 391.193496 409.711804 
L 384.566606 412.410753 
L 386.38358 405.489871 
z
" clip-path="url(#p95e02a62b8)" style="fill: #dd9430; stroke-dasharray: 9,5.4; stroke-dashoffset: 0; stroke: #dd9430; stroke-width: 1.8; stroke-linecap: round"/>
   </g>
   <g id="text_1">
    <!-- epw-mobility  pipeline -->
    <g style="fill: #1d2433" transform="translate(15.22125 31.078147) scale(0.18 -0.18)">
     <defs>
      <path id="DejaVuSans-Bold-65" d="M 4031 1759 
L 4031 1441 
L 1416 1441 
Q 1456 1047 1700 850 
Q 1944 653 2381 653 
Q 2734 653 3104 758 
Q 3475 863 3866 1075 
L 3866 213 
Q 3469 63 3072 -14 
Q 2675 -91 2278 -91 
Q 1328 -91 801 392 
Q 275 875 275 1747 
Q 275 2603 792 3093 
Q 1309 3584 2216 3584 
Q 3041 3584 3536 3087 
Q 4031 2591 4031 1759 
z
M 2881 2131 
Q 2881 2450 2695 2645 
Q 2509 2841 2209 2841 
Q 1884 2841 1681 2658 
Q 1478 2475 1428 2131 
L 2881 2131 
z
" transform="scale(0.015625)"/>
      <path id="DejaVuSans-Bold-70" d="M 1656 506 
L 1656 -1331 
L 538 -1331 
L 538 3500 
L 1656 3500 
L 1656 2988 
Q 1888 3294 2169 3439 
Q 2450 3584 2816 3584 
Q 3463 3584 3878 3070 
Q 4294 2556 4294 1747 
Q 4294 938 3878 423 
Q 3463 -91 2816 -91 
Q 2450 -91 2169 54 
Q 1888 200 1656 506 
z
M 2400 2772 
Q 2041 2772 1848 2508 
Q 1656 2244 1656 1747 
Q 1656 1250 1848 986 
Q 2041 722 2400 722 
Q 2759 722 2948 984 
Q 3138 1247 3138 1747 
Q 3138 2247 2948 2509 
Q 2759 2772 2400 2772 
z
" transform="scale(0.015625)"/>
      <path id="DejaVuSans-Bold-77" d="M 225 3500 
L 1313 3500 
L 1900 1088 
L 2491 3500 
L 3425 3500 
L 4013 1113 
L 4603 3500 
L 5691 3500 
L 4769 0 
L 3547 0 
L 2956 2406 
L 2369 0 
L 1147 0 
L 225 3500 
z
" transform="scale(0.015625)"/>
      <path id="DejaVuSans-Bold-2d" d="M 347 2297 
L 2309 2297 
L 2309 1388 
L 347 1388 
L 347 2297 
z
" transform="scale(0.015625)"/>
      <path id="DejaVuSans-Bold-6d" d="M 3781 2919 
Q 3994 3244 4286 3414 
Q 4578 3584 4928 3584 
Q 5531 3584 5847 3212 
Q 6163 2841 6163 2131 
L 6163 0 
L 5038 0 
L 5038 1825 
Q 5041 1866 5042 1909 
Q 5044 1953 5044 2034 
Q 5044 2406 4934 2573 
Q 4825 2741 4581 2741 
Q 4263 2741 4089 2478 
Q 3916 2216 3909 1719 
L 3909 0 
L 2784 0 
L 2784 1825 
Q 2784 2406 2684 2573 
Q 2584 2741 2328 2741 
Q 2006 2741 1831 2477 
Q 1656 2213 1656 1722 
L 1656 0 
L 531 0 
L 531 3500 
L 1656 3500 
L 1656 2988 
Q 1863 3284 2130 3434 
Q 2397 3584 2719 3584 
Q 3081 3584 3359 3409 
Q 3638 3234 3781 2919 
z
" transform="scale(0.015625)"/>
      <path id="DejaVuSans-Bold-6f" d="M 2203 2784 
Q 1831 2784 1636 2517 
Q 1441 2250 1441 1747 
Q 1441 1244 1636 976 
Q 1831 709 2203 709 
Q 2569 709 2762 976 
Q 2956 1244 2956 1747 
Q 2956 2250 2762 2517 
Q 2569 2784 2203 2784 
z
M 2203 3584 
Q 3106 3584 3614 3096 
Q 4122 2609 4122 1747 
Q 4122 884 3614 396 
Q 3106 -91 2203 -91 
Q 1297 -91 786 396 
Q 275 884 275 1747 
Q 275 2609 786 3096 
Q 1297 3584 2203 3584 
z
" transform="scale(0.015625)"/>
      <path id="DejaVuSans-Bold-62" d="M 2400 722 
Q 2759 722 2948 984 
Q 3138 1247 3138 1747 
Q 3138 2247 2948 2509 
Q 2759 2772 2400 2772 
Q 2041 2772 1848 2508 
Q 1656 2244 1656 1747 
Q 1656 1250 1848 986 
Q 2041 722 2400 722 
z
M 1656 2988 
Q 1888 3294 2169 3439 
Q 2450 3584 2816 3584 
Q 3463 3584 3878 3070 
Q 4294 2556 4294 1747 
Q 4294 938 3878 423 
Q 3463 -91 2816 -91 
Q 2450 -91 2169 54 
Q 1888 200 1656 506 
L 1656 0 
L 538 0 
L 538 4863 
L 1656 4863 
L 1656 2988 
z
" transform="scale(0.015625)"/>
      <path id="DejaVuSans-Bold-69" d="M 538 3500 
L 1656 3500 
L 1656 0 
L 538 0 
L 538 3500 
z
M 538 4863 
L 1656 4863 
L 1656 3950 
L 538 3950 
L 538 4863 
z
" transform="scale(0.015625)"/>
      <path id="DejaVuSans-Bold-6c" d="M 538 4863 
L 1656 4863 
L 1656 0 
L 538 0 
L 538 4863 
z
" transform="scale(0.015625)"/>
      <path id="DejaVuSans-Bold-74" d="M 1759 4494 
L 1759 3500 
L 2913 3500 
L 2913 2700 
L 1759 2700 
L 1759 1216 
Q 1759 972 1856 886 
Q 1953 800 2241 800 
L 2816 800 
L 2816 0 
L 1856 0 
Q 1194 0 917 276 
Q 641 553 641 1216 
L 641 2700 
L 84 2700 
L 84 3500 
L 641 3500 
L 641 4494 
L 1759 4494 
z
" transform="scale(0.015625)"/>
      <path id="DejaVuSans-Bold-79" d="M 78 3500 
L 1197 3500 
L 2138 1125 
L 2938 3500 
L 4056 3500 
L 2584 -331 
Q 2363 -916 2067 -1148 
Q 1772 -1381 1288 -1381 
L 641 -1381 
L 641 -647 
L 991 -647 
Q 1275 -647 1404 -556 
Q 1534 -466 1606 -231 
L 1638 -134 
L 78 3500 
z
" transform="scale(0.015625)"/>
      <path id="DejaVuSans-Bold-20" transform="scale(0.015625)"/>
      <path id="DejaVuSans-Bold-6e" d="M 4056 2131 
L 4056 0 
L 2931 0 
L 2931 347 
L 2931 1631 
Q 2931 2084 2911 2256 
Q 2891 2428 2841 2509 
Q 2775 2619 2662 2680 
Q 2550 2741 2406 2741 
Q 2056 2741 1856 2470 
Q 1656 2200 1656 1722 
L 1656 0 
L 538 0 
L 538 3500 
L 1656 3500 
L 1656 2988 
Q 1909 3294 2193 3439 
Q 2478 3584 2822 3584 
Q 3428 3584 3742 3212 
Q 4056 2841 4056 2131 
z
" transform="scale(0.015625)"/>
     </defs>
     <use xlink:href="#DejaVuSans-Bold-65"/>
     <use xlink:href="#DejaVuSans-Bold-70" transform="translate(67.822266 0)"/>
     <use xlink:href="#DejaVuSans-Bold-77" transform="translate(139.404297 0)"/>
     <use xlink:href="#DejaVuSans-Bold-2d" transform="translate(231.787109 0)"/>
     <use xlink:href="#DejaVuSans-Bold-6d" transform="translate(273.291016 0)"/>
     <use xlink:href="#DejaVuSans-Bold-6f" transform="translate(377.490234 0)"/>
     <use xlink:href="#DejaVuSans-Bold-62" transform="translate(446.191406 0)"/>
     <use xlink:href="#DejaVuSans-Bold-69" transform="translate(517.773438 0)"/>
     <use xlink:href="#DejaVuSans-Bold-6c" transform="translate(552.050781 0)"/>
     <use xlink:href="#DejaVuSans-Bold-69" transform="translate(586.328125 0)"/>
     <use xlink:href="#DejaVuSans-Bold-74" transform="translate(620.605469 0)"/>
     <use xlink:href="#DejaVuSans-Bold-79" transform="translate(668.408203 0)"/>
     <use xlink:href="#DejaVuSans-Bold-20" transform="translate(733.59375 0)"/>
     <use xlink:href="#DejaVuSans-Bold-20" transform="translate(768.408203 0)"/>
     <use xlink:href="#DejaVuSans-Bold-70" transform="translate(803.222656 0)"/>
     <use xlink:href="#DejaVuSans-Bold-69" transform="translate(874.804688 0)"/>
     <use xlink:href="#DejaVuSans-Bold-70" transform="translate(909.082031 0)"/>
     <use xlink:href="#DejaVuSans-Bold-65" transform="translate(980.664062 0)"/>
     <use xlink:href="#DejaVuSans-Bold-6c" transform="translate(1048.486328 0)"/>
     <use xlink:href="#DejaVuSans-Bold-69" transform="translate(1082.763672 0)"/>
     <use xlink:href="#DejaVuSans-Bold-6e" transform="translate(1117.041016 0)"/>
     <use xlink:href="#DejaVuSans-Bold-65" transform="translate(1188.232422 0)"/>
    </g>
   </g>
   <g id="patch_12">
    <path d="M 165.486 104.619168 
L 266.019 104.619168 
Q 272.436 104.619168 272.436 98.498592 
L 272.436 58.714848 
Q 272.436 52.594272 266.019 52.594272 
L 165.486 52.594272 
Q 159.069 52.594272 159.069 58.714848 
L 159.069 98.498592 
Q 159.069 104.619168 165.486 104.619168 
z
" clip-path="url(#p95e02a62b8)" style="fill: #eef2f7; stroke: #46506a; stroke-width: 1.4; stroke-linejoin: miter"/>
   </g>
   <g id="patch_13">
    <path d="M 26.451 196.427808 
L 126.984 196.427808 
Q 133.401 196.427808 133.401 190.307232 
L 133.401 150.523488 
Q 133.401 144.402912 126.984 144.402912 
L 26.451 144.402912 
Q 20.034 144.402912 20.034 150.523488 
L 20.034 190.307232 
Q 20.034 196.427808 26.451 196.427808 
z
" clip-path="url(#p95e02a62b8)" style="fill: #e6f0fb; stroke: #2f6db0; stroke-width: 1.4; stroke-linejoin: miter"/>
   </g>
   <g id="patch_14">
    <path d="M 160.1385 196.427808 
L 260.6715 196.427808 
Q 267.0885 196.427808 267.0885 190.307232 
L 267.0885 150.523488 
Q 267.0885 144.402912 260.6715 144.402912 
L 160.1385 144.402912 
Q 153.7215 144.402912 153.7215 150.523488 
L 153.7215 190.307232 
Q 153.7215 196.427808 160.1385 196.427808 
z
" clip-path="url(#p95e02a62b8)" style="fill: #e6f0fb; stroke: #2f6db0; stroke-width: 1.4; stroke-linejoin: miter"/>
   </g>
   <g id="patch_15">
    <path d="M 307.19475 196.427808 
L 407.72775 196.427808 
Q 414.14475 196.427808 414.14475 190.307232 
L 414.14475 150.523488 
Q 414.14475 144.402912 407.72775 144.402912 
L 307.19475 144.402912 
Q 300.77775 144.402912 300.77775 150.523488 
L 300.77775 190.307232 
Q 300.77775 196.427808 307.19475 196.427808 
z
" clip-path="url(#p95e02a62b8)" style="fill: #eef2f7; stroke: #46506a; stroke-width: 1.4; stroke-linejoin: miter"/>
   </g>
   <g id="patch_16">
    <path d="M 93.29475 293.336928 
L 193.82775 293.336928 
Q 200.24475 293.336928 200.24475 287.216352 
L 200.24475 247.432608 
Q 200.24475 241.312032 193.82775 241.312032 
L 93.29475 241.312032 
Q 86.87775 241.312032 86.87775 247.432608 
L 86.87775 287.216352 
Q 86.87775 293.336928 93.29475 293.336928 
z
" clip-path="url(#p95e02a62b8)" style="fill: #e6f0fb; stroke: #2f6db0; stroke-width: 1.4; stroke-linejoin: miter"/>
   </g>
   <g id="patch_17">
    <path d="M 165.486 385.145568 
L 266.019 385.145568 
Q 272.436 385.145568 272.436 379.024992 
L 272.436 339.241248 
Q 272.436 333.120672 266.019 333.120672 
L 165.486 333.120672 
Q 159.069 333.120672 159.069 339.241248 
L 159.069 379.024992 
Q 159.069 385.145568 165.486 385.145568 
z
" clip-path="url(#p95e02a62b8)" style="fill: #f1e9f8; stroke: #7d4fb0; stroke-width: 1.4; stroke-linejoin: miter"/>
   </g>
   <g id="patch_18">
    <path d="M 93.29475 469.303488 
L 193.82775 469.303488 
Q 200.24475 469.303488 200.24475 463.182912 
L 200.24475 423.399168 
Q 200.24475 417.278592 193.82775 417.278592 
L 93.29475 417.278592 
Q 86.87775 417.278592 86.87775 423.399168 
L 86.87775 463.182912 
Q 86.87775 469.303488 93.29475 469.303488 
z
" clip-path="url(#p95e02a62b8)" style="fill: #e2f5ea; stroke: #2e8b57; stroke-width: 2.2; stroke-linejoin: miter"/>
   </g>
   <g id="patch_19">
    <path d="M 307.19475 469.303488 
L 407.72775 469.303488 
Q 414.14475 469.303488 414.14475 463.182912 
L 414.14475 423.399168 
Q 414.14475 417.278592 407.72775 417.278592 
L 307.19475 417.278592 
Q 300.77775 417.278592 300.77775 423.399168 
L 300.77775 463.182912 
Q 300.77775 469.303488 307.19475 469.303488 
z
" clip-path="url(#p95e02a62b8)" style="fill: #e2f5ea; stroke: #2e8b57; stroke-width: 2.2; stroke-linejoin: miter"/>
   </g>
   <g id="patch_20">
    <path d="M 403.44975 359.643168 
L 503.98275 359.643168 
Q 510.39975 359.643168 510.39975 353.522592 
L 510.39975 313.738848 
Q 510.39975 307.618272 503.98275 307.618272 
L 403.44975 307.618272 
Q 397.03275 307.618272 397.03275 313.738848 
L 397.03275 353.522592 
Q 397.03275 359.643168 403.44975 359.643168 
z
" clip-path="url(#p95e02a62b8)" style="fill: #fff4e2; stroke-dasharray: 5.92,2.56; stroke-dashoffset: 0; stroke: #dd9430; stroke-width: 1.6; stroke-linejoin: miter"/>
   </g>
   <g id="text_2">
    <!-- green = deliverables    ·    dashed = DFPT |g| benchmark for step 08 -->
    <g style="fill: #7a8294" transform="translate(63.111562 512.028092) scale(0.092 -0.092)">
     <defs>
      <path id="DejaVuSans-67" d="M 2906 1791 
Q 2906 2416 2648 2759 
Q 2391 3103 1925 3103 
Q 1463 3103 1205 2759 
Q 947 2416 947 1791 
Q 947 1169 1205 825 
Q 1463 481 1925 481 
Q 2391 481 2648 825 
Q 2906 1169 2906 1791 
z
M 3481 434 
Q 3481 -459 3084 -895 
Q 2688 -1331 1869 -1331 
Q 1566 -1331 1297 -1286 
Q 1028 -1241 775 -1147 
L 775 -588 
Q 1028 -725 1275 -790 
Q 1522 -856 1778 -856 
Q 2344 -856 2625 -561 
Q 2906 -266 2906 331 
L 2906 616 
Q 2728 306 2450 153 
Q 2172 0 1784 0 
Q 1141 0 747 490 
Q 353 981 353 1791 
Q 353 2603 747 3093 
Q 1141 3584 1784 3584 
Q 2172 3584 2450 3431 
Q 2728 3278 2906 2969 
L 2906 3500 
L 3481 3500 
L 3481 434 
z
" transform="scale(0.015625)"/>
      <path id="DejaVuSans-72" d="M 2631 2963 
Q 2534 3019 2420 3045 
Q 2306 3072 2169 3072 
Q 1681 3072 1420 2755 
Q 1159 2438 1159 1844 
L 1159 0 
L 581 0 
L 581 3500 
L 1159 3500 
L 1159 2956 
Q 1341 3275 1631 3429 
Q 1922 3584 2338 3584 
Q 2397 3584 2469 3576 
Q 2541 3569 2628 3553 
L 2631 2963 
z
" transform="scale(0.015625)"/>
      <path id="DejaVuSans-65" d="M 3597 1894 
L 3597 1613 
L 953 1613 
Q 991 1019 1311 708 
Q 1631 397 2203 397 
Q 2534 397 2845 478 
Q 3156 559 3463 722 
L 3463 178 
Q 3153 47 2828 -22 
Q 2503 -91 2169 -91 
Q 1331 -91 842 396 
Q 353 884 353 1716 
Q 353 2575 817 3079 
Q 1281 3584 2069 3584 
Q 2775 3584 3186 3129 
Q 3597 2675 3597 1894 
z
M 3022 2063 
Q 3016 2534 2758 2815 
Q 2500 3097 2075 3097 
Q 1594 3097 1305 2825 
Q 1016 2553 972 2059 
L 3022 2063 
z
" transform="scale(0.015625)"/>
      <path id="DejaVuSans-6e" d="M 3513 2113 
L 3513 0 
L 2938 0 
L 2938 2094 
Q 2938 2591 2744 2837 
Q 2550 3084 2163 3084 
Q 1697 3084 1428 2787 
Q 1159 2491 1159 1978 
L 1159 0 
L 581 0 
L 581 3500 
L 1159 3500 
L 1159 2956 
Q 1366 3272 1645 3428 
Q 1925 3584 2291 3584 
Q 2894 3584 3203 3211 
Q 3513 2838 3513 2113 
z
" transform="scale(0.015625)"/>
      <path id="DejaVuSans-20" transform="scale(0.015625)"/>
      <path id="DejaVuSans-3d" d="M 678 2906 
L 4684 2906 
L 4684 2381 
L 678 2381 
L 678 2906 
z
M 678 1631 
L 4684 1631 
L 4684 1100 
L 678 1100 
L 678 1631 
z
" transform="scale(0.015625)"/>
      <path id="DejaVuSans-64" d="M 2906 2969 
L 2906 4863 
L 3481 4863 
L 3481 0 
L 2906 0 
L 2906 525 
Q 2725 213 2448 61 
Q 2172 -91 1784 -91 
Q 1150 -91 751 415 
Q 353 922 353 1747 
Q 353 2572 751 3078 
Q 1150 3584 1784 3584 
Q 2172 3584 2448 3432 
Q 2725 3281 2906 2969 
z
M 947 1747 
Q 947 1113 1208 752 
Q 1469 391 1925 391 
Q 2381 391 2643 752 
Q 2906 1113 2906 1747 
Q 2906 2381 2643 2742 
Q 2381 3103 1925 3103 
Q 1469 3103 1208 2742 
Q 947 2381 947 1747 
z
" transform="scale(0.015625)"/>
      <path id="DejaVuSans-6c" d="M 603 4863 
L 1178 4863 
L 1178 0 
L 603 0 
L 603 4863 
z
" transform="scale(0.015625)"/>
      <path id="DejaVuSans-69" d="M 603 3500 
L 1178 3500 
L 1178 0 
L 603 0 
L 603 3500 
z
M 603 4863 
L 1178 4863 
L 1178 4134 
L 603 4134 
L 603 4863 
z
" transform="scale(0.015625)"/>
      <path id="DejaVuSans-76" d="M 191 3500 
L 800 3500 
L 1894 563 
L 2988 3500 
L 3597 3500 
L 2284 0 
L 1503 0 
L 191 3500 
z
" transform="scale(0.015625)"/>
      <path id="DejaVuSans-61" d="M 2194 1759 
Q 1497 1759 1228 1600 
Q 959 1441 959 1056 
Q 959 750 1161 570 
Q 1363 391 1709 391 
Q 2188 391 2477 730 
Q 2766 1069 2766 1631 
L 2766 1759 
L 2194 1759 
z
M 3341 1997 
L 3341 0 
L 2766 0 
L 2766 531 
Q 2569 213 2275 61 
Q 1981 -91 1556 -91 
Q 1019 -91 701 211 
Q 384 513 384 1019 
Q 384 1609 779 1909 
Q 1175 2209 1959 2209 
L 2766 2209 
L 2766 2266 
Q 2766 2663 2505 2880 
Q 2244 3097 1772 3097 
Q 1472 3097 1187 3025 
Q 903 2953 641 2809 
L 641 3341 
Q 956 3463 1253 3523 
Q 1550 3584 1831 3584 
Q 2591 3584 2966 3190 
Q 3341 2797 3341 1997 
z
" transform="scale(0.015625)"/>
      <path id="DejaVuSans-62" d="M 3116 1747 
Q 3116 2381 2855 2742 
Q 2594 3103 2138 3103 
Q 1681 3103 1420 2742 
Q 1159 2381 1159 1747 
Q 1159 1113 1420 752 
Q 1681 391 2138 391 
Q 2594 391 2855 752 
Q 3116 1113 3116 1747 
z
M 1159 2969 
Q 1341 3281 1617 3432 
Q 1894 3584 2278 3584 
Q 2916 3584 3314 3078 
Q 3713 2572 3713 1747 
Q 3713 922 3314 415 
Q 2916 -91 2278 -91 
Q 1894 -91 1617 61 
Q 1341 213 1159 525 
L 1159 0 
L 581 0 
L 581 4863 
L 1159 4863 
L 1159 2969 
z
" transform="scale(0.015625)"/>
      <path id="DejaVuSans-73" d="M 2834 3397 
L 2834 2853 
Q 2591 2978 2328 3040 
Q 2066 3103 1784 3103 
Q 1356 3103 1142 2972 
Q 928 2841 928 2578 
Q 928 2378 1081 2264 
Q 1234 2150 1697 2047 
L 1894 2003 
Q 2506 1872 2764 1633 
Q 3022 1394 3022 966 
Q 3022 478 2636 193 
Q 2250 -91 1575 -91 
Q 1294 -91 989 -36 
Q 684 19 347 128 
L 347 722 
Q 666 556 975 473 
Q 1284 391 1588 391 
Q 1994 391 2212 530 
Q 2431 669 2431 922 
Q 2431 1156 2273 1281 
Q 2116 1406 1581 1522 
L 1381 1569 
Q 847 1681 609 1914 
Q 372 2147 372 2553 
Q 372 3047 722 3315 
Q 1072 3584 1716 3584 
Q 2034 3584 2315 3537 
Q 2597 3491 2834 3397 
z
" transform="scale(0.015625)"/>
      <path id="DejaVuSans-b7" d="M 684 2619 
L 1344 2619 
L 1344 1825 
L 684 1825 
L 684 2619 
z
" transform="scale(0.015625)"/>
      <path id="DejaVuSans-68" d="M 3513 2113 
L 3513 0 
L 2938 0 
L 2938 2094 
Q 2938 2591 2744 2837 
Q 2550 3084 2163 3084 
Q 1697 3084 1428 2787 
Q 1159 2491 1159 1978 
L 1159 0 
L 581 0 
L 581 4863 
L 1159 4863 
L 1159 2956 
Q 1366 3272 1645 3428 
Q 1925 3584 2291 3584 
Q 2894 3584 3203 3211 
Q 3513 2838 3513 2113 
z
" transform="scale(0.015625)"/>
      <path id="DejaVuSans-44" d="M 1259 4147 
L 1259 519 
L 2022 519 
Q 2988 519 3436 956 
Q 3884 1394 3884 2338 
Q 3884 3275 3436 3711 
Q 2988 4147 2022 4147 
L 1259 4147 
z
M 628 4666 
L 1925 4666 
Q 3281 4666 3915 4102 
Q 4550 3538 4550 2338 
Q 4550 1131 3912 565 
Q 3275 0 1925 0 
L 628 0 
L 628 4666 
z
" transform="scale(0.015625)"/>
      <path id="DejaVuSans-46" d="M 628 4666 
L 3309 4666 
L 3309 4134 
L 1259 4134 
L 1259 2759 
L 3109 2759 
L 3109 2228 
L 1259 2228 
L 1259 0 
L 628 0 
L 628 4666 
z
" transform="scale(0.015625)"/>
      <path id="DejaVuSans-50" d="M 1259 4147 
L 1259 2394 
L 2053 2394 
Q 2494 2394 2734 2622 
Q 2975 2850 2975 3272 
Q 2975 3691 2734 3919 
Q 2494 4147 2053 4147 
L 1259 4147 
z
M 628 4666 
L 2053 4666 
Q 2838 4666 3239 4311 
Q 3641 3956 3641 3272 
Q 3641 2581 3239 2228 
Q 2838 1875 2053 1875 
L 1259 1875 
L 1259 0 
L 628 0 
L 628 4666 
z
" transform="scale(0.015625)"/>
      <path id="DejaVuSans-54" d="M -19 4666 
L 3928 4666 
L 3928 4134 
L 2272 4134 
L 2272 0 
L 1638 0 
L 1638 4134 
L -19 4134 
L -19 4666 
z
" transform="scale(0.015625)"/>
      <path id="DejaVuSans-7c" d="M 1344 4891 
L 1344 -1509 
L 813 -1509 
L 813 4891 
L 1344 4891 
z
" transform="scale(0.015625)"/>
      <path id="DejaVuSans-63" d="M 3122 3366 
L 3122 2828 
Q 2878 2963 2633 3030 
Q 2388 3097 2138 3097 
Q 1578 3097 1268 2742 
Q 959 2388 959 1747 
Q 959 1106 1268 751 
Q 1578 397 2138 397 
Q 2388 397 2633 464 
Q 2878 531 3122 666 
L 3122 134 
Q 2881 22 2623 -34 
Q 2366 -91 2075 -91 
Q 1284 -91 818 406 
Q 353 903 353 1747 
Q 353 2603 823 3093 
Q 1294 3584 2113 3584 
Q 2378 3584 2631 3529 
Q 2884 3475 3122 3366 
z
" transform="scale(0.015625)"/>
      <path id="DejaVuSans-6d" d="M 3328 2828 
Q 3544 3216 3844 3400 
Q 4144 3584 4550 3584 
Q 5097 3584 5394 3201 
Q 5691 2819 5691 2113 
L 5691 0 
L 5113 0 
L 5113 2094 
Q 5113 2597 4934 2840 
Q 4756 3084 4391 3084 
Q 3944 3084 3684 2787 
Q 3425 2491 3425 1978 
L 3425 0 
L 2847 0 
L 2847 2094 
Q 2847 2600 2669 2842 
Q 2491 3084 2119 3084 
Q 1678 3084 1418 2786 
Q 1159 2488 1159 1978 
L 1159 0 
L 581 0 
L 581 3500 
L 1159 3500 
L 1159 2956 
Q 1356 3278 1631 3431 
Q 1906 3584 2284 3584 
Q 2666 3584 2933 3390 
Q 3200 3197 3328 2828 
z
" transform="scale(0.015625)"/>
      <path id="DejaVuSans-6b" d="M 581 4863 
L 1159 4863 
L 1159 1991 
L 2875 3500 
L 3609 3500 
L 1753 1863 
L 3688 0 
L 2938 0 
L 1159 1709 
L 1159 0 
L 581 0 
L 581 4863 
z
" transform="scale(0.015625)"/>
      <path id="DejaVuSans-66" d="M 2375 4863 
L 2375 4384 
L 1825 4384 
Q 1516 4384 1395 4259 
Q 1275 4134 1275 3809 
L 1275 3500 
L 2222 3500 
L 2222 3053 
L 1275 3053 
L 1275 0 
L 697 0 
L 697 3053 
L 147 3053 
L 147 3500 
L 697 3500 
L 697 3744 
Q 697 4328 969 4595 
Q 1241 4863 1831 4863 
L 2375 4863 
z
" transform="scale(0.015625)"/>
      <path id="DejaVuSans-6f" d="M 1959 3097 
Q 1497 3097 1228 2736 
Q 959 2375 959 1747 
Q 959 1119 1226 758 
Q 1494 397 1959 397 
Q 2419 397 2687 759 
Q 2956 1122 2956 1747 
Q 2956 2369 2687 2733 
Q 2419 3097 1959 3097 
z
M 1959 3584 
Q 2709 3584 3137 3096 
Q 3566 2609 3566 1747 
Q 3566 888 3137 398 
Q 2709 -91 1959 -91 
Q 1206 -91 779 398 
Q 353 888 353 1747 
Q 353 2609 779 3096 
Q 1206 3584 1959 3584 
z
" transform="scale(0.015625)"/>
      <path id="DejaVuSans-74" d="M 1172 4494 
L 1172 3500 
L 2356 3500 
L 2356 3053 
L 1172 3053 
L 1172 1153 
Q 1172 725 1289 603 
Q 1406 481 1766 481 
L 2356 481 
L 2356 0 
L 1766 0 
Q 1100 0 847 248 
Q 594 497 594 1153 
L 594 3053 
L 172 3053 
L 172 3500 
L 594 3500 
L 594 4494 
L 1172 4494 
z
" transform="scale(0.015625)"/>
      <path id="DejaVuSans-70" d="M 1159 525 
L 1159 -1331 
L 581 -1331 
L 581 3500 
L 1159 3500 
L 1159 2969 
Q 1341 3281 1617 3432 
Q 1894 3584 2278 3584 
Q 2916 3584 3314 3078 
Q 3713 2572 3713 1747 
Q 3713 922 3314 415 
Q 2916 -91 2278 -91 
Q 1894 -91 1617 61 
Q 1341 213 1159 525 
z
M 3116 1747 
Q 3116 2381 2855 2742 
Q 2594 3103 2138 3103 
Q 1681 3103 1420 2742 
Q 1159 2381 1159 1747 
Q 1159 1113 1420 752 
Q 1681 391 2138 391 
Q 2594 391 2855 752 
Q 3116 1113 3116 1747 
z
" transform="scale(0.015625)"/>
      <path id="DejaVuSans-30" d="M 2034 4250 
Q 1547 4250 1301 3770 
Q 1056 3291 1056 2328 
Q 1056 1369 1301 889 
Q 1547 409 2034 409 
Q 2525 409 2770 889 
Q 3016 1369 3016 2328 
Q 3016 3291 2770 3770 
Q 2525 4250 2034 4250 
z
M 2034 4750 
Q 2819 4750 3233 4129 
Q 3647 3509 3647 2328 
Q 3647 1150 3233 529 
Q 2819 -91 2034 -91 
Q 1250 -91 836 529 
Q 422 1150 422 2328 
Q 422 3509 836 4129 
Q 1250 4750 2034 4750 
z
" transform="scale(0.015625)"/>
      <path id="DejaVuSans-38" d="M 2034 2216 
Q 1584 2216 1326 1975 
Q 1069 1734 1069 1313 
Q 1069 891 1326 650 
Q 1584 409 2034 409 
Q 2484 409 2743 651 
Q 3003 894 3003 1313 
Q 3003 1734 2745 1975 
Q 2488 2216 2034 2216 
z
M 1403 2484 
Q 997 2584 770 2862 
Q 544 3141 544 3541 
Q 544 4100 942 4425 
Q 1341 4750 2034 4750 
Q 2731 4750 3128 4425 
Q 3525 4100 3525 3541 
Q 3525 3141 3298 2862 
Q 3072 2584 2669 2484 
Q 3125 2378 3379 2068 
Q 3634 1759 3634 1313 
Q 3634 634 3220 271 
Q 2806 -91 2034 -91 
Q 1263 -91 848 271 
Q 434 634 434 1313 
Q 434 1759 690 2068 
Q 947 2378 1403 2484 
z
M 1172 3481 
Q 1172 3119 1398 2916 
Q 1625 2713 2034 2713 
Q 2441 2713 2670 2916 
Q 2900 3119 2900 3481 
Q 2900 3844 2670 4047 
Q 2441 4250 2034 4250 
Q 1625 4250 1398 4047 
Q 1172 3844 1172 3481 
z
" transform="scale(0.015625)"/>
     </defs>
     <use xlink:href="#DejaVuSans-67"/>
     <use xlink:href="#DejaVuSans-72" transform="translate(63.476562 0)"/>
     <use xlink:href="#DejaVuSans-65" transform="translate(102.339844 0)"/>
     <use xlink:href="#DejaVuSans-65" transform="translate(163.863281 0)"/>
     <use xlink:href="#DejaVuSans-6e" transform="translate(225.386719 0)"/>
     <use xlink:href="#DejaVuSans-20" transform="translate(288.765625 0)"/>
     <use xlink:href="#DejaVuSans-3d" transform="translate(320.552734 0)"/>
     <use xlink:href="#DejaVuSans-20" transform="translate(404.341797 0)"/>
     <use xlink:href="#DejaVuSans-64" transform="translate(436.128906 0)"/>
     <use xlink:href="#DejaVuSans-65" transform="translate(499.605469 0)"/>
     <use xlink:href="#DejaVuSans-6c" transform="translate(561.128906 0)"/>
     <use xlink:href="#DejaVuSans-69" transform="translate(588.912109 0)"/>
     <use xlink:href="#DejaVuSans-76" transform="translate(616.695312 0)"/>
     <use xlink:href="#DejaVuSans-65" transform="translate(675.875 0)"/>
     <use xlink:href="#DejaVuSans-72" transform="translate(737.398438 0)"/>
     <use xlink:href="#DejaVuSans-61" transform="translate(778.511719 0)"/>
     <use xlink:href="#DejaVuSans-62" transform="translate(839.791016 0)"/>
     <use xlink:href="#DejaVuSans-6c" transform="translate(903.267578 0)"/>
     <use xlink:href="#DejaVuSans-65" transform="translate(931.050781 0)"/>
     <use xlink:href="#DejaVuSans-73" transform="translate(992.574219 0)"/>
     <use xlink:href="#DejaVuSans-20" transform="translate(1044.673828 0)"/>
     <use xlink:href="#DejaVuSans-20" transform="translate(1076.460938 0)"/>
     <use xlink:href="#DejaVuSans-20" transform="translate(1108.248047 0)"/>
     <use xlink:href="#DejaVuSans-20" transform="translate(1140.035156 0)"/>
     <use xlink:href="#DejaVuSans-b7" transform="translate(1171.822266 0)"/>
     <use xlink:href="#DejaVuSans-20" transform="translate(1203.609375 0)"/>
     <use xlink:href="#DejaVuSans-20" transform="translate(1235.396484 0)"/>
     <use xlink:href="#DejaVuSans-20" transform="translate(1267.183594 0)"/>
     <use xlink:href="#DejaVuSans-20" transform="translate(1298.970703 0)"/>
     <use xlink:href="#DejaVuSans-64" transform="translate(1330.757812 0)"/>
     <use xlink:href="#DejaVuSans-61" transform="translate(1394.234375 0)"/>
     <use xlink:href="#DejaVuSans-73" transform="translate(1455.513672 0)"/>
     <use xlink:href="#DejaVuSans-68" transform="translate(1507.613281 0)"/>
     <use xlink:href="#DejaVuSans-65" transform="translate(1570.992188 0)"/>
     <use xlink:href="#DejaVuSans-64" transform="translate(1632.515625 0)"/>
     <use xlink:href="#DejaVuSans-20" transform="translate(1695.992188 0)"/>
     <use xlink:href="#DejaVuSans-3d" transform="translate(1727.779297 0)"/>
     <use xlink:href="#DejaVuSans-20" transform="translate(1811.568359 0)"/>
     <use xlink:href="#DejaVuSans-44" transform="translate(1843.355469 0)"/>
     <use xlink:href="#DejaVuSans-46" transform="translate(1920.357422 0)"/>
     <use xlink:href="#DejaVuSans-50" transform="translate(1977.876953 0)"/>
     <use xlink:href="#DejaVuSans-54" transform="translate(2038.179688 0)"/>
     <use xlink:href="#DejaVuSans-20" transform="translate(2099.263672 0)"/>
     <use xlink:href="#DejaVuSans-7c" transform="translate(2131.050781 0)"/>
     <use xlink:href="#DejaVuSans-67" transform="translate(2164.742188 0)"/>
     <use xlink:href="#DejaVuSans-7c" transform="translate(2228.21875 0)"/>
     <use xlink:href="#DejaVuSans-20" transform="translate(2261.910156 0)"/>
     <use xlink:href="#DejaVuSans-62" transform="translate(2293.697266 0)"/>
     <use xlink:href="#DejaVuSans-65" transform="translate(2357.173828 0)"/>
     <use xlink:href="#DejaVuSans-6e" transform="translate(2418.697266 0)"/>
     <use xlink:href="#DejaVuSans-63" transform="translate(2482.076172 0)"/>
     <use xlink:href="#DejaVuSans-68" transform="translate(2537.056641 0)"/>
     <use xlink:href="#DejaVuSans-6d" transform="translate(2600.435547 0)"/>
     <use xlink:href="#DejaVuSans-61" transform="translate(2697.847656 0)"/>
     <use xlink:href="#DejaVuSans-72" transform="translate(2759.126953 0)"/>
     <use xlink:href="#DejaVuSans-6b" transform="translate(2800.240234 0)"/>
     <use xlink:href="#DejaVuSans-20" transform="translate(2858.150391 0)"/>
     <use xlink:href="#DejaVuSans-66" transform="translate(2889.9375 0)"/>
     <use xlink:href="#DejaVuSans-6f" transform="translate(2925.142578 0)"/>
     <use xlink:href="#DejaVuSans-72" transform="translate(2986.324219 0)"/>
     <use xlink:href="#DejaVuSans-20" transform="translate(3027.4375 0)"/>
     <use xlink:href="#DejaVuSans-73" transform="translate(3059.224609 0)"/>
     <use xlink:href="#DejaVuSans-74" transform="translate(3111.324219 0)"/>
     <use xlink:href="#DejaVuSans-65" transform="translate(3150.533203 0)"/>
     <use xlink:href="#DejaVuSans-70" transform="translate(3212.056641 0)"/>
     <use xlink:href="#DejaVuSans-20" transform="translate(3275.533203 0)"/>
     <use xlink:href="#DejaVuSans-30" transform="translate(3307.320312 0)"/>
     <use xlink:href="#DejaVuSans-38" transform="translate(3370.943359 0)"/>
    </g>
   </g>
   <g id="text_3">
    <!-- 01 · SCF -->
    <g style="fill: #1d2433" transform="translate(190.886344 81.586845) scale(0.108 -0.108)">
     <defs>
      <path id="DejaVuSans-Bold-30" d="M 2944 2338 
Q 2944 3213 2780 3570 
Q 2616 3928 2228 3928 
Q 1841 3928 1675 3570 
Q 1509 3213 1509 2338 
Q 1509 1453 1675 1090 
Q 1841 728 2228 728 
Q 2613 728 2778 1090 
Q 2944 1453 2944 2338 
z
M 4147 2328 
Q 4147 1169 3647 539 
Q 3147 -91 2228 -91 
Q 1306 -91 806 539 
Q 306 1169 306 2328 
Q 306 3491 806 4120 
Q 1306 4750 2228 4750 
Q 3147 4750 3647 4120 
Q 4147 3491 4147 2328 
z
" transform="scale(0.015625)"/>
      <path id="DejaVuSans-Bold-31" d="M 750 831 
L 1813 831 
L 1813 3847 
L 722 3622 
L 722 4441 
L 1806 4666 
L 2950 4666 
L 2950 831 
L 4013 831 
L 4013 0 
L 750 0 
L 750 831 
z
" transform="scale(0.015625)"/>
      <path id="DejaVuSans-Bold-b7" d="M 653 2828 
L 1778 2828 
L 1778 1619 
L 653 1619 
L 653 2828 
z
" transform="scale(0.015625)"/>
      <path id="DejaVuSans-Bold-53" d="M 3834 4519 
L 3834 3531 
Q 3450 3703 3084 3790 
Q 2719 3878 2394 3878 
Q 1963 3878 1756 3759 
Q 1550 3641 1550 3391 
Q 1550 3203 1689 3098 
Q 1828 2994 2194 2919 
L 2706 2816 
Q 3484 2659 3812 2340 
Q 4141 2022 4141 1434 
Q 4141 663 3683 286 
Q 3225 -91 2284 -91 
Q 1841 -91 1394 -6 
Q 947 78 500 244 
L 500 1259 
Q 947 1022 1364 901 
Q 1781 781 2169 781 
Q 2563 781 2772 912 
Q 2981 1044 2981 1288 
Q 2981 1506 2839 1625 
Q 2697 1744 2272 1838 
L 1806 1941 
Q 1106 2091 782 2419 
Q 459 2747 459 3303 
Q 459 4000 909 4375 
Q 1359 4750 2203 4750 
Q 2588 4750 2994 4692 
Q 3400 4634 3834 4519 
z
" transform="scale(0.015625)"/>
      <path id="DejaVuSans-Bold-43" d="M 4288 256 
Q 3956 84 3597 -3 
Q 3238 -91 2847 -91 
Q 1681 -91 1000 561 
Q 319 1213 319 2328 
Q 319 3447 1000 4098 
Q 1681 4750 2847 4750 
Q 3238 4750 3597 4662 
Q 3956 4575 4288 4403 
L 4288 3438 
Q 3953 3666 3628 3772 
Q 3303 3878 2944 3878 
Q 2300 3878 1931 3465 
Q 1563 3053 1563 2328 
Q 1563 1606 1931 1193 
Q 2300 781 2944 781 
Q 3303 781 3628 887 
Q 3953 994 4288 1222 
L 4288 256 
z
" transform="scale(0.015625)"/>
      <path id="DejaVuSans-Bold-46" d="M 588 4666 
L 3834 4666 
L 3834 3756 
L 1791 3756 
L 1791 2888 
L 3713 2888 
L 3713 1978 
L 1791 1978 
L 1791 0 
L 588 0 
L 588 4666 
z
" transform="scale(0.015625)"/>
     </defs>
     <use xlink:href="#DejaVuSans-Bold-30"/>
     <use xlink:href="#DejaVuSans-Bold-31" transform="translate(69.580078 0)"/>
     <use xlink:href="#DejaVuSans-Bold-20" transform="translate(139.160156 0)"/>
     <use xlink:href="#DejaVuSans-Bold-b7" transform="translate(173.974609 0)"/>
     <use xlink:href="#DejaVuSans-Bold-20" transform="translate(211.962891 0)"/>
     <use xlink:href="#DejaVuSans-Bold-53" transform="translate(246.777344 0)"/>
     <use xlink:href="#DejaVuSans-Bold-43" transform="translate(318.798828 0)"/>
     <use xlink:href="#DejaVuSans-Bold-46" transform="translate(392.1875 0)"/>
    </g>
   </g>
   <g id="text_4">
    <!-- 03 · DFPT-Γ -->
    <g style="fill: #1d2433" transform="translate(42.693281 164.214621) scale(0.108 -0.108)">
     <defs>
      <path id="DejaVuSans-Bold-33" d="M 2981 2516 
Q 3453 2394 3698 2092 
Q 3944 1791 3944 1325 
Q 3944 631 3412 270 
Q 2881 -91 1863 -91 
Q 1503 -91 1142 -33 
Q 781 25 428 141 
L 428 1069 
Q 766 900 1098 814 
Q 1431 728 1753 728 
Q 2231 728 2486 893 
Q 2741 1059 2741 1369 
Q 2741 1688 2480 1852 
Q 2219 2016 1709 2016 
L 1228 2016 
L 1228 2791 
L 1734 2791 
Q 2188 2791 2409 2933 
Q 2631 3075 2631 3366 
Q 2631 3634 2415 3781 
Q 2200 3928 1806 3928 
Q 1516 3928 1219 3862 
Q 922 3797 628 3669 
L 628 4550 
Q 984 4650 1334 4700 
Q 1684 4750 2022 4750 
Q 2931 4750 3382 4451 
Q 3834 4153 3834 3553 
Q 3834 3144 3618 2883 
Q 3403 2622 2981 2516 
z
" transform="scale(0.015625)"/>
      <path id="DejaVuSans-Bold-44" d="M 1791 3756 
L 1791 909 
L 2222 909 
Q 2959 909 3348 1275 
Q 3738 1641 3738 2338 
Q 3738 3031 3350 3393 
Q 2963 3756 2222 3756 
L 1791 3756 
z
M 588 4666 
L 1856 4666 
Q 2919 4666 3439 4514 
Q 3959 4363 4331 4000 
Q 4659 3684 4818 3271 
Q 4978 2859 4978 2338 
Q 4978 1809 4818 1395 
Q 4659 981 4331 666 
Q 3956 303 3431 151 
Q 2906 0 1856 0 
L 588 0 
L 588 4666 
z
" transform="scale(0.015625)"/>
      <path id="DejaVuSans-Bold-50" d="M 588 4666 
L 2584 4666 
Q 3475 4666 3951 4270 
Q 4428 3875 4428 3144 
Q 4428 2409 3951 2014 
Q 3475 1619 2584 1619 
L 1791 1619 
L 1791 0 
L 588 0 
L 588 4666 
z
M 1791 3794 
L 1791 2491 
L 2456 2491 
Q 2806 2491 2997 2661 
Q 3188 2831 3188 3144 
Q 3188 3456 2997 3625 
Q 2806 3794 2456 3794 
L 1791 3794 
z
" transform="scale(0.015625)"/>
      <path id="DejaVuSans-Bold-54" d="M 31 4666 
L 4331 4666 
L 4331 3756 
L 2784 3756 
L 2784 0 
L 1581 0 
L 1581 3756 
L 31 3756 
L 31 4666 
z
" transform="scale(0.015625)"/>
      <path id="DejaVuSans-Bold-393" d="M 588 0 
L 588 4666 
L 3903 4666 
L 3903 3756 
L 1791 3756 
L 1791 0 
L 588 0 
z
" transform="scale(0.015625)"/>
     </defs>
     <use xlink:href="#DejaVuSans-Bold-30"/>
     <use xlink:href="#DejaVuSans-Bold-33" transform="translate(69.580078 0)"/>
     <use xlink:href="#DejaVuSans-Bold-20" transform="translate(139.160156 0)"/>
     <use xlink:href="#DejaVuSans-Bold-b7" transform="translate(173.974609 0)"/>
     <use xlink:href="#DejaVuSans-Bold-20" transform="translate(211.962891 0)"/>
     <use xlink:href="#DejaVuSans-Bold-44" transform="translate(246.777344 0)"/>
     <use xlink:href="#DejaVuSans-Bold-46" transform="translate(329.785156 0)"/>
     <use xlink:href="#DejaVuSans-Bold-50" transform="translate(398.095703 0)"/>
     <use xlink:href="#DejaVuSans-Bold-54" transform="translate(471.386719 0)"/>
     <use xlink:href="#DejaVuSans-Bold-2d" transform="translate(524.849609 0)"/>
     <use xlink:href="#DejaVuSans-Bold-393" transform="translate(566.353516 0)"/>
    </g>
   </g>
   <g id="text_5">
    <!-- ε∞, Born charges -->
    <g style="fill: #444c5e" transform="translate(38.819062 183.554618) scale(0.088 -0.088)">
     <defs>
      <path id="DejaVuSans-3b5" d="M 1234 1888 
Q 884 1963 697 2166 
Q 509 2366 509 2656 
Q 509 3097 866 3344 
Q 1219 3588 1831 3588 
Q 2069 3588 2334 3550 
Q 2600 3513 2906 3438 
L 2906 2916 
Q 2603 3006 2353 3047 
Q 2100 3088 1878 3088 
Q 1506 3088 1291 2944 
Q 1072 2800 1072 2600 
Q 1072 2381 1284 2241 
Q 1494 2103 1856 2103 
L 2341 2103 
L 2341 1628 
L 1878 1628 
Q 1450 1628 1225 1469 
Q 981 1294 981 1019 
Q 981 738 1244 563 
Q 1509 388 1981 388 
Q 2272 388 2538 444 
Q 2803 503 3025 619 
L 3025 84 
Q 2744 -3 2481 -47 
Q 2216 -91 1966 -91 
Q 1222 -91 819 194 
Q 416 478 416 1019 
Q 416 1356 631 1584 
Q 847 1813 1234 1888 
z
" transform="scale(0.015625)"/>
      <path id="DejaVuSans-221e" d="M 2916 1091 
Q 2819 1203 2666 1466 
Q 2456 1091 2272 925 
Q 2041 725 1681 725 
Q 1259 725 981 1041 
Q 688 1372 688 1919 
Q 688 2444 981 2800 
Q 1244 3116 1688 3116 
Q 1916 3116 2084 3022 
Q 2281 2919 2416 2741 
Q 2541 2581 2666 2366 
Q 2875 2741 3059 2906 
Q 3291 3106 3650 3106 
Q 4072 3106 4350 2791 
Q 4644 2459 4644 1913 
Q 4644 1388 4350 1031 
Q 4088 716 3644 716 
Q 3416 716 3247 809 
Q 3078 894 2916 1091 
z
M 1647 1134 
Q 2163 1134 2472 1884 
Q 2075 2703 1647 2703 
Q 1334 2703 1175 2478 
Q 1003 2238 1003 1919 
Q 1003 1569 1175 1353 
Q 1350 1134 1647 1134 
z
M 3684 2697 
Q 3219 2697 2859 1947 
Q 3253 1128 3684 1128 
Q 3997 1128 4156 1353 
Q 4328 1594 4328 1913 
Q 4328 2263 4156 2478 
Q 3981 2697 3684 2697 
z
" transform="scale(0.015625)"/>
      <path id="DejaVuSans-2c" d="M 750 794 
L 1409 794 
L 1409 256 
L 897 -744 
L 494 -744 
L 750 256 
L 750 794 
z
" transform="scale(0.015625)"/>
      <path id="DejaVuSans-42" d="M 1259 2228 
L 1259 519 
L 2272 519 
Q 2781 519 3026 730 
Q 3272 941 3272 1375 
Q 3272 1813 3026 2020 
Q 2781 2228 2272 2228 
L 1259 2228 
z
M 1259 4147 
L 1259 2741 
L 2194 2741 
Q 2656 2741 2882 2914 
Q 3109 3088 3109 3444 
Q 3109 3797 2882 3972 
Q 2656 4147 2194 4147 
L 1259 4147 
z
M 628 4666 
L 2241 4666 
Q 2963 4666 3353 4366 
Q 3744 4066 3744 3513 
Q 3744 3084 3544 2831 
Q 3344 2578 2956 2516 
Q 3422 2416 3680 2098 
Q 3938 1781 3938 1306 
Q 3938 681 3513 340 
Q 3088 0 2303 0 
L 628 0 
L 628 4666 
z
" transform="scale(0.015625)"/>
     </defs>
     <use xlink:href="#DejaVuSans-3b5"/>
     <use xlink:href="#DejaVuSans-221e" transform="translate(54.052734 0)"/>
     <use xlink:href="#DejaVuSans-2c" transform="translate(137.353516 0)"/>
     <use xlink:href="#DejaVuSans-20" transform="translate(169.140625 0)"/>
     <use xlink:href="#DejaVuSans-42" transform="translate(200.927734 0)"/>
     <use xlink:href="#DejaVuSans-6f" transform="translate(269.53125 0)"/>
     <use xlink:href="#DejaVuSans-72" transform="translate(330.712891 0)"/>
     <use xlink:href="#DejaVuSans-6e" transform="translate(370.076172 0)"/>
     <use xlink:href="#DejaVuSans-20" transform="translate(433.455078 0)"/>
     <use xlink:href="#DejaVuSans-63" transform="translate(465.242188 0)"/>
     <use xlink:href="#DejaVuSans-68" transform="translate(520.222656 0)"/>
     <use xlink:href="#DejaVuSans-61" transform="translate(583.601562 0)"/>
     <use xlink:href="#DejaVuSans-72" transform="translate(644.880859 0)"/>
     <use xlink:href="#DejaVuSans-67" transform="translate(684.244141 0)"/>
     <use xlink:href="#DejaVuSans-65" transform="translate(747.720703 0)"/>
     <use xlink:href="#DejaVuSans-73" transform="translate(809.244141 0)"/>
    </g>
   </g>
   <g id="text_6">
    <!-- 04 · DFPT q-grid -->
    <g style="fill: #1d2433" transform="translate(161.0355 164.172433) scale(0.108 -0.108)">
     <defs>
      <path id="DejaVuSans-Bold-34" d="M 2356 3675 
L 1038 1722 
L 2356 1722 
L 2356 3675 
z
M 2156 4666 
L 3494 4666 
L 3494 1722 
L 4159 1722 
L 4159 850 
L 3494 850 
L 3494 0 
L 2356 0 
L 2356 850 
L 288 850 
L 288 1881 
L 2156 4666 
z
" transform="scale(0.015625)"/>
      <path id="DejaVuSans-Bold-71" d="M 2181 2772 
Q 1825 2772 1636 2509 
Q 1447 2247 1447 1747 
Q 1447 1247 1636 984 
Q 1825 722 2181 722 
Q 2541 722 2730 984 
Q 2919 1247 2919 1747 
Q 2919 2247 2730 2509 
Q 2541 2772 2181 2772 
z
M 2919 506 
Q 2688 197 2409 53 
Q 2131 -91 1766 -91 
Q 1119 -91 703 423 
Q 288 938 288 1747 
Q 288 2556 703 3067 
Q 1119 3578 1766 3578 
Q 2131 3578 2409 3434 
Q 2688 3291 2919 2981 
L 2919 3500 
L 4044 3500 
L 4044 -1331 
L 2919 -1331 
L 2919 506 
z
" transform="scale(0.015625)"/>
      <path id="DejaVuSans-Bold-67" d="M 2919 594 
Q 2688 288 2409 144 
Q 2131 0 1766 0 
Q 1125 0 706 504 
Q 288 1009 288 1791 
Q 288 2575 706 3076 
Q 1125 3578 1766 3578 
Q 2131 3578 2409 3434 
Q 2688 3291 2919 2981 
L 2919 3500 
L 4044 3500 
L 4044 353 
Q 4044 -491 3511 -936 
Q 2978 -1381 1966 -1381 
Q 1638 -1381 1331 -1331 
Q 1025 -1281 716 -1178 
L 716 -306 
Q 1009 -475 1290 -558 
Q 1572 -641 1856 -641 
Q 2406 -641 2662 -400 
Q 2919 -159 2919 353 
L 2919 594 
z
M 2181 2772 
Q 1834 2772 1640 2515 
Q 1447 2259 1447 1791 
Q 1447 1309 1634 1061 
Q 1822 813 2181 813 
Q 2531 813 2725 1069 
Q 2919 1325 2919 1791 
Q 2919 2259 2725 2515 
Q 2531 2772 2181 2772 
z
" transform="scale(0.015625)"/>
      <path id="DejaVuSans-Bold-72" d="M 3138 2547 
Q 2991 2616 2845 2648 
Q 2700 2681 2553 2681 
Q 2122 2681 1889 2404 
Q 1656 2128 1656 1613 
L 1656 0 
L 538 0 
L 538 3500 
L 1656 3500 
L 1656 2925 
Q 1872 3269 2151 3426 
Q 2431 3584 2822 3584 
Q 2878 3584 2943 3579 
Q 3009 3575 3134 3559 
L 3138 2547 
z
" transform="scale(0.015625)"/>
      <path id="DejaVuSans-Bold-64" d="M 2919 2988 
L 2919 4863 
L 4044 4863 
L 4044 0 
L 2919 0 
L 2919 506 
Q 2688 197 2409 53 
Q 2131 -91 1766 -91 
Q 1119 -91 703 423 
Q 288 938 288 1747 
Q 288 2556 703 3070 
Q 1119 3584 1766 3584 
Q 2128 3584 2408 3439 
Q 2688 3294 2919 2988 
z
M 2181 722 
Q 2541 722 2730 984 
Q 2919 1247 2919 1747 
Q 2919 2247 2730 2509 
Q 2541 2772 2181 2772 
Q 1825 2772 1636 2509 
Q 1447 2247 1447 1747 
Q 1447 1247 1636 984 
Q 1825 722 2181 722 
z
" transform="scale(0.015625)"/>
     </defs>
     <use xlink:href="#DejaVuSans-Bold-30"/>
     <use xlink:href="#DejaVuSans-Bold-34" transform="translate(69.580078 0)"/>
     <use xlink:href="#DejaVuSans-Bold-20" transform="translate(139.160156 0)"/>
     <use xlink:href="#DejaVuSans-Bold-b7" transform="translate(173.974609 0)"/>
     <use xlink:href="#DejaVuSans-Bold-20" transform="translate(211.962891 0)"/>
     <use xlink:href="#DejaVuSans-Bold-44" transform="translate(246.777344 0)"/>
     <use xlink:href="#DejaVuSans-Bold-46" transform="translate(329.785156 0)"/>
     <use xlink:href="#DejaVuSans-Bold-50" transform="translate(398.095703 0)"/>
     <use xlink:href="#DejaVuSans-Bold-54" transform="translate(471.386719 0)"/>
     <use xlink:href="#DejaVuSans-Bold-20" transform="translate(539.599609 0)"/>
     <use xlink:href="#DejaVuSans-Bold-71" transform="translate(574.414062 0)"/>
     <use xlink:href="#DejaVuSans-Bold-2d" transform="translate(645.996094 0)"/>
     <use xlink:href="#DejaVuSans-Bold-67" transform="translate(687.5 0)"/>
     <use xlink:href="#DejaVuSans-Bold-72" transform="translate(759.082031 0)"/>
     <use xlink:href="#DejaVuSans-Bold-69" transform="translate(808.398438 0)"/>
     <use xlink:href="#DejaVuSans-Bold-64" transform="translate(842.675781 0)"/>
    </g>
   </g>
   <g id="text_7">
    <!-- dvscf, uniform q -->
    <g style="fill: #444c5e" transform="translate(174.700375 183.554618) scale(0.088 -0.088)">
     <defs>
      <path id="DejaVuSans-75" d="M 544 1381 
L 544 3500 
L 1119 3500 
L 1119 1403 
Q 1119 906 1312 657 
Q 1506 409 1894 409 
Q 2359 409 2629 706 
Q 2900 1003 2900 1516 
L 2900 3500 
L 3475 3500 
L 3475 0 
L 2900 0 
L 2900 538 
Q 2691 219 2414 64 
Q 2138 -91 1772 -91 
Q 1169 -91 856 284 
Q 544 659 544 1381 
z
M 1991 3584 
L 1991 3584 
z
" transform="scale(0.015625)"/>
      <path id="DejaVuSans-71" d="M 947 1747 
Q 947 1113 1208 752 
Q 1469 391 1925 391 
Q 2381 391 2643 752 
Q 2906 1113 2906 1747 
Q 2906 2381 2643 2742 
Q 2381 3103 1925 3103 
Q 1469 3103 1208 2742 
Q 947 2381 947 1747 
z
M 2906 525 
Q 2725 213 2448 61 
Q 2172 -91 1784 -91 
Q 1150 -91 751 415 
Q 353 922 353 1747 
Q 353 2572 751 3078 
Q 1150 3584 1784 3584 
Q 2172 3584 2448 3432 
Q 2725 3281 2906 2969 
L 2906 3500 
L 3481 3500 
L 3481 -1331 
L 2906 -1331 
L 2906 525 
z
" transform="scale(0.015625)"/>
     </defs>
     <use xlink:href="#DejaVuSans-64"/>
     <use xlink:href="#DejaVuSans-76" transform="translate(63.476562 0)"/>
     <use xlink:href="#DejaVuSans-73" transform="translate(122.65625 0)"/>
     <use xlink:href="#DejaVuSans-63" transform="translate(174.755859 0)"/>
     <use xlink:href="#DejaVuSans-66" transform="translate(229.736328 0)"/>
     <use xlink:href="#DejaVuSans-2c" transform="translate(264.941406 0)"/>
     <use xlink:href="#DejaVuSans-20" transform="translate(296.728516 0)"/>
     <use xlink:href="#DejaVuSans-75" transform="translate(328.515625 0)"/>
     <use xlink:href="#DejaVuSans-6e" transform="translate(391.894531 0)"/>
     <use xlink:href="#DejaVuSans-69" transform="translate(455.273438 0)"/>
     <use xlink:href="#DejaVuSans-66" transform="translate(483.056641 0)"/>
     <use xlink:href="#DejaVuSans-6f" transform="translate(518.261719 0)"/>
     <use xlink:href="#DejaVuSans-72" transform="translate(579.443359 0)"/>
     <use xlink:href="#DejaVuSans-6d" transform="translate(618.806641 0)"/>
     <use xlink:href="#DejaVuSans-20" transform="translate(716.21875 0)"/>
     <use xlink:href="#DejaVuSans-71" transform="translate(748.005859 0)"/>
    </g>
   </g>
   <g id="text_8">
    <!-- 02 · NSCF -->
    <g style="fill: #1d2433" transform="translate(328.075969 164.214621) scale(0.108 -0.108)">
     <defs>
      <path id="DejaVuSans-Bold-32" d="M 1844 884 
L 3897 884 
L 3897 0 
L 506 0 
L 506 884 
L 2209 2388 
Q 2438 2594 2547 2791 
Q 2656 2988 2656 3200 
Q 2656 3528 2436 3728 
Q 2216 3928 1850 3928 
Q 1569 3928 1234 3808 
Q 900 3688 519 3450 
L 519 4475 
Q 925 4609 1322 4679 
Q 1719 4750 2100 4750 
Q 2938 4750 3402 4381 
Q 3866 4013 3866 3353 
Q 3866 2972 3669 2642 
Q 3472 2313 2841 1759 
L 1844 884 
z
" transform="scale(0.015625)"/>
      <path id="DejaVuSans-Bold-4e" d="M 588 4666 
L 1931 4666 
L 3628 1466 
L 3628 4666 
L 4769 4666 
L 4769 0 
L 3425 0 
L 1728 3200 
L 1728 0 
L 588 0 
L 588 4666 
z
" transform="scale(0.015625)"/>
     </defs>
     <use xlink:href="#DejaVuSans-Bold-30"/>
     <use xlink:href="#DejaVuSans-Bold-32" transform="translate(69.580078 0)"/>
     <use xlink:href="#DejaVuSans-Bold-20" transform="translate(139.160156 0)"/>
     <use xlink:href="#DejaVuSans-Bold-b7" transform="translate(173.974609 0)"/>
     <use xlink:href="#DejaVuSans-Bold-20" transform="translate(211.962891 0)"/>
     <use xlink:href="#DejaVuSans-Bold-4e" transform="translate(246.777344 0)"/>
     <use xlink:href="#DejaVuSans-Bold-53" transform="translate(330.46875 0)"/>
     <use xlink:href="#DejaVuSans-Bold-43" transform="translate(402.490234 0)"/>
     <use xlink:href="#DejaVuSans-Bold-46" transform="translate(475.878906 0)"/>
    </g>
   </g>
   <g id="text_9">
    <!-- explicit k-grid -->
    <g style="fill: #444c5e" transform="translate(327.470437 183.554618) scale(0.088 -0.088)">
     <defs>
      <path id="DejaVuSans-78" d="M 3513 3500 
L 2247 1797 
L 3578 0 
L 2900 0 
L 1881 1375 
L 863 0 
L 184 0 
L 1544 1831 
L 300 3500 
L 978 3500 
L 1906 2253 
L 2834 3500 
L 3513 3500 
z
" transform="scale(0.015625)"/>
      <path id="DejaVuSans-2d" d="M 313 2009 
L 1997 2009 
L 1997 1497 
L 313 1497 
L 313 2009 
z
" transform="scale(0.015625)"/>
     </defs>
     <use xlink:href="#DejaVuSans-65"/>
     <use xlink:href="#DejaVuSans-78" transform="translate(59.773438 0)"/>
     <use xlink:href="#DejaVuSans-70" transform="translate(118.953125 0)"/>
     <use xlink:href="#DejaVuSans-6c" transform="translate(182.429688 0)"/>
     <use xlink:href="#DejaVuSans-69" transform="translate(210.212891 0)"/>
     <use xlink:href="#DejaVuSans-63" transform="translate(237.996094 0)"/>
     <use xlink:href="#DejaVuSans-69" transform="translate(292.976562 0)"/>
     <use xlink:href="#DejaVuSans-74" transform="translate(320.759766 0)"/>
     <use xlink:href="#DejaVuSans-20" transform="translate(359.96875 0)"/>
     <use xlink:href="#DejaVuSans-6b" transform="translate(391.755859 0)"/>
     <use xlink:href="#DejaVuSans-2d" transform="translate(449.666016 0)"/>
     <use xlink:href="#DejaVuSans-67" transform="translate(485.75 0)"/>
     <use xlink:href="#DejaVuSans-72" transform="translate(549.226562 0)"/>
     <use xlink:href="#DejaVuSans-69" transform="translate(590.339844 0)"/>
     <use xlink:href="#DejaVuSans-64" transform="translate(618.123047 0)"/>
    </g>
   </g>
   <g id="text_10">
    <!-- 06 · pp.py gather -->
    <g style="fill: #1d2433" transform="translate(90.928969 270.262417) scale(0.108 -0.108)">
     <defs>
      <path id="DejaVuSans-Bold-36" d="M 2316 2303 
Q 2000 2303 1842 2098 
Q 1684 1894 1684 1484 
Q 1684 1075 1842 870 
Q 2000 666 2316 666 
Q 2634 666 2792 870 
Q 2950 1075 2950 1484 
Q 2950 1894 2792 2098 
Q 2634 2303 2316 2303 
z
M 3803 4544 
L 3803 3681 
Q 3506 3822 3243 3889 
Q 2981 3956 2731 3956 
Q 2194 3956 1894 3657 
Q 1594 3359 1544 2772 
Q 1750 2925 1990 3001 
Q 2231 3078 2516 3078 
Q 3231 3078 3670 2659 
Q 4109 2241 4109 1563 
Q 4109 813 3618 361 
Q 3128 -91 2303 -91 
Q 1394 -91 895 523 
Q 397 1138 397 2266 
Q 397 3422 980 4083 
Q 1563 4744 2578 4744 
Q 2900 4744 3203 4694 
Q 3506 4644 3803 4544 
z
" transform="scale(0.015625)"/>
      <path id="DejaVuSans-Bold-2e" d="M 653 1209 
L 1778 1209 
L 1778 0 
L 653 0 
L 653 1209 
z
" transform="scale(0.015625)"/>
      <path id="DejaVuSans-Bold-61" d="M 2106 1575 
Q 1756 1575 1579 1456 
Q 1403 1338 1403 1106 
Q 1403 894 1545 773 
Q 1688 653 1941 653 
Q 2256 653 2472 879 
Q 2688 1106 2688 1447 
L 2688 1575 
L 2106 1575 
z
M 3816 1997 
L 3816 0 
L 2688 0 
L 2688 519 
Q 2463 200 2181 54 
Q 1900 -91 1497 -91 
Q 953 -91 614 226 
Q 275 544 275 1050 
Q 275 1666 698 1953 
Q 1122 2241 2028 2241 
L 2688 2241 
L 2688 2328 
Q 2688 2594 2478 2717 
Q 2269 2841 1825 2841 
Q 1466 2841 1156 2769 
Q 847 2697 581 2553 
L 581 3406 
Q 941 3494 1303 3539 
Q 1666 3584 2028 3584 
Q 2975 3584 3395 3211 
Q 3816 2838 3816 1997 
z
" transform="scale(0.015625)"/>
      <path id="DejaVuSans-Bold-68" d="M 4056 2131 
L 4056 0 
L 2931 0 
L 2931 347 
L 2931 1625 
Q 2931 2084 2911 2256 
Q 2891 2428 2841 2509 
Q 2775 2619 2662 2680 
Q 2550 2741 2406 2741 
Q 2056 2741 1856 2470 
Q 1656 2200 1656 1722 
L 1656 0 
L 538 0 
L 538 4863 
L 1656 4863 
L 1656 2988 
Q 1909 3294 2193 3439 
Q 2478 3584 2822 3584 
Q 3428 3584 3742 3212 
Q 4056 2841 4056 2131 
z
" transform="scale(0.015625)"/>
     </defs>
     <use xlink:href="#DejaVuSans-Bold-30"/>
     <use xlink:href="#DejaVuSans-Bold-36" transform="translate(69.580078 0)"/>
     <use xlink:href="#DejaVuSans-Bold-20" transform="translate(139.160156 0)"/>
     <use xlink:href="#DejaVuSans-Bold-b7" transform="translate(173.974609 0)"/>
     <use xlink:href="#DejaVuSans-Bold-20" transform="translate(211.962891 0)"/>
     <use xlink:href="#DejaVuSans-Bold-70" transform="translate(246.777344 0)"/>
     <use xlink:href="#DejaVuSans-Bold-70" transform="translate(318.359375 0)"/>
     <use xlink:href="#DejaVuSans-Bold-2e" transform="translate(389.941406 0)"/>
     <use xlink:href="#DejaVuSans-Bold-70" transform="translate(427.929688 0)"/>
     <use xlink:href="#DejaVuSans-Bold-79" transform="translate(499.511719 0)"/>
     <use xlink:href="#DejaVuSans-Bold-20" transform="translate(564.697266 0)"/>
     <use xlink:href="#DejaVuSans-Bold-67" transform="translate(599.511719 0)"/>
     <use xlink:href="#DejaVuSans-Bold-61" transform="translate(671.09375 0)"/>
     <use xlink:href="#DejaVuSans-Bold-74" transform="translate(738.574219 0)"/>
     <use xlink:href="#DejaVuSans-Bold-68" transform="translate(786.376953 0)"/>
     <use xlink:href="#DejaVuSans-Bold-65" transform="translate(857.568359 0)"/>
     <use xlink:href="#DejaVuSans-Bold-72" transform="translate(925.390625 0)"/>
    </g>
   </g>
   <g id="text_11">
    <!-- 07 · Wannierize -->
    <g style="fill: #1d2433" transform="translate(168.500812 352.932381) scale(0.108 -0.108)">
     <defs>
      <path id="DejaVuSans-Bold-37" d="M 428 4666 
L 3944 4666 
L 3944 3988 
L 2125 0 
L 953 0 
L 2675 3781 
L 428 3781 
L 428 4666 
z
" transform="scale(0.015625)"/>
      <path id="DejaVuSans-Bold-57" d="M 191 4666 
L 1344 4666 
L 2150 1275 
L 2950 4666 
L 4109 4666 
L 4909 1275 
L 5716 4666 
L 6859 4666 
L 5759 0 
L 4372 0 
L 3525 3547 
L 2688 0 
L 1300 0 
L 191 4666 
z
" transform="scale(0.015625)"/>
      <path id="DejaVuSans-Bold-7a" d="M 366 3500 
L 3419 3500 
L 3419 2719 
L 1575 800 
L 3419 800 
L 3419 0 
L 288 0 
L 288 781 
L 2131 2700 
L 366 2700 
L 366 3500 
z
" transform="scale(0.015625)"/>
     </defs>
     <use xlink:href="#DejaVuSans-Bold-30"/>
     <use xlink:href="#DejaVuSans-Bold-37" transform="translate(69.580078 0)"/>
     <use xlink:href="#DejaVuSans-Bold-20" transform="translate(139.160156 0)"/>
     <use xlink:href="#DejaVuSans-Bold-b7" transform="translate(173.974609 0)"/>
     <use xlink:href="#DejaVuSans-Bold-20" transform="translate(211.962891 0)"/>
     <use xlink:href="#DejaVuSans-Bold-57" transform="translate(246.777344 0)"/>
     <use xlink:href="#DejaVuSans-Bold-61" transform="translate(353.455078 0)"/>
     <use xlink:href="#DejaVuSans-Bold-6e" transform="translate(420.935547 0)"/>
     <use xlink:href="#DejaVuSans-Bold-6e" transform="translate(492.126953 0)"/>
     <use xlink:href="#DejaVuSans-Bold-69" transform="translate(563.318359 0)"/>
     <use xlink:href="#DejaVuSans-Bold-65" transform="translate(597.595703 0)"/>
     <use xlink:href="#DejaVuSans-Bold-72" transform="translate(665.417969 0)"/>
     <use xlink:href="#DejaVuSans-Bold-69" transform="translate(714.734375 0)"/>
     <use xlink:href="#DejaVuSans-Bold-7a" transform="translate(749.011719 0)"/>
     <use xlink:href="#DejaVuSans-Bold-65" transform="translate(807.214844 0)"/>
    </g>
   </g>
   <g id="text_12">
    <!-- MLWFs -->
    <g style="fill: #444c5e" transform="translate(200.732687 372.272378) scale(0.088 -0.088)">
     <defs>
      <path id="DejaVuSans-4d" d="M 628 4666 
L 1569 4666 
L 2759 1491 
L 3956 4666 
L 4897 4666 
L 4897 0 
L 4281 0 
L 4281 4097 
L 3078 897 
L 2444 897 
L 1241 4097 
L 1241 0 
L 628 0 
L 628 4666 
z
" transform="scale(0.015625)"/>
      <path id="DejaVuSans-4c" d="M 628 4666 
L 1259 4666 
L 1259 531 
L 3531 531 
L 3531 0 
L 628 0 
L 628 4666 
z
" transform="scale(0.015625)"/>
      <path id="DejaVuSans-57" d="M 213 4666 
L 850 4666 
L 1831 722 
L 2809 4666 
L 3519 4666 
L 4500 722 
L 5478 4666 
L 6119 4666 
L 4947 0 
L 4153 0 
L 3169 4050 
L 2175 0 
L 1381 0 
L 213 4666 
z
" transform="scale(0.015625)"/>
     </defs>
     <use xlink:href="#DejaVuSans-4d"/>
     <use xlink:href="#DejaVuSans-4c" transform="translate(86.279297 0)"/>
     <use xlink:href="#DejaVuSans-57" transform="translate(132.867188 0)"/>
     <use xlink:href="#DejaVuSans-46" transform="translate(231.744141 0)"/>
     <use xlink:href="#DejaVuSans-73" transform="translate(289.263672 0)"/>
    </g>
   </g>
   <g id="text_13">
    <!-- 09 · EPW SERTA -->
    <g style="fill: #1d2433" transform="translate(95.815969 437.090301) scale(0.108 -0.108)">
     <defs>
      <path id="DejaVuSans-Bold-39" d="M 641 103 
L 641 966 
Q 928 831 1190 764 
Q 1453 697 1709 697 
Q 2247 697 2547 995 
Q 2847 1294 2900 1881 
Q 2688 1725 2447 1647 
Q 2206 1569 1925 1569 
Q 1209 1569 770 1986 
Q 331 2403 331 3084 
Q 331 3838 820 4291 
Q 1309 4744 2131 4744 
Q 3044 4744 3544 4128 
Q 4044 3513 4044 2388 
Q 4044 1231 3459 570 
Q 2875 -91 1856 -91 
Q 1528 -91 1228 -42 
Q 928 6 641 103 
z
M 2125 2350 
Q 2441 2350 2600 2554 
Q 2759 2759 2759 3169 
Q 2759 3575 2600 3781 
Q 2441 3988 2125 3988 
Q 1809 3988 1650 3781 
Q 1491 3575 1491 3169 
Q 1491 2759 1650 2554 
Q 1809 2350 2125 2350 
z
" transform="scale(0.015625)"/>
      <path id="DejaVuSans-Bold-45" d="M 588 4666 
L 3834 4666 
L 3834 3756 
L 1791 3756 
L 1791 2888 
L 3713 2888 
L 3713 1978 
L 1791 1978 
L 1791 909 
L 3903 909 
L 3903 0 
L 588 0 
L 588 4666 
z
" transform="scale(0.015625)"/>
      <path id="DejaVuSans-Bold-52" d="M 2297 2597 
Q 2675 2597 2839 2737 
Q 3003 2878 3003 3200 
Q 3003 3519 2839 3656 
Q 2675 3794 2297 3794 
L 1791 3794 
L 1791 2597 
L 2297 2597 
z
M 1791 1766 
L 1791 0 
L 588 0 
L 588 4666 
L 2425 4666 
Q 3347 4666 3776 4356 
Q 4206 4047 4206 3378 
Q 4206 2916 3982 2619 
Q 3759 2322 3309 2181 
Q 3556 2125 3751 1926 
Q 3947 1728 4147 1325 
L 4800 0 
L 3519 0 
L 2950 1159 
Q 2778 1509 2601 1637 
Q 2425 1766 2131 1766 
L 1791 1766 
z
" transform="scale(0.015625)"/>
      <path id="DejaVuSans-Bold-41" d="M 3419 850 
L 1538 850 
L 1241 0 
L 31 0 
L 1759 4666 
L 3194 4666 
L 4922 0 
L 3713 0 
L 3419 850 
z
M 1838 1716 
L 3116 1716 
L 2478 3572 
L 1838 1716 
z
" transform="scale(0.015625)"/>
     </defs>
     <use xlink:href="#DejaVuSans-Bold-30"/>
     <use xlink:href="#DejaVuSans-Bold-39" transform="translate(69.580078 0)"/>
     <use xlink:href="#DejaVuSans-Bold-20" transform="translate(139.160156 0)"/>
     <use xlink:href="#DejaVuSans-Bold-b7" transform="translate(173.974609 0)"/>
     <use xlink:href="#DejaVuSans-Bold-20" transform="translate(211.962891 0)"/>
     <use xlink:href="#DejaVuSans-Bold-45" transform="translate(246.777344 0)"/>
     <use xlink:href="#DejaVuSans-Bold-50" transform="translate(315.087891 0)"/>
     <use xlink:href="#DejaVuSans-Bold-57" transform="translate(388.378906 0)"/>
     <use xlink:href="#DejaVuSans-Bold-20" transform="translate(498.681641 0)"/>
     <use xlink:href="#DejaVuSans-Bold-53" transform="translate(533.496094 0)"/>
     <use xlink:href="#DejaVuSans-Bold-45" transform="translate(605.517578 0)"/>
     <use xlink:href="#DejaVuSans-Bold-52" transform="translate(673.828125 0)"/>
     <use xlink:href="#DejaVuSans-Bold-54" transform="translate(746.330078 0)"/>
     <use xlink:href="#DejaVuSans-Bold-41" transform="translate(806.792969 0)"/>
    </g>
   </g>
   <g id="text_14">
    <!-- mobility μ(T) -->
    <g style="fill: #444c5e" transform="translate(115.474812 456.430298) scale(0.088 -0.088)">
     <defs>
      <path id="DejaVuSans-79" d="M 2059 -325 
Q 1816 -950 1584 -1140 
Q 1353 -1331 966 -1331 
L 506 -1331 
L 506 -850 
L 844 -850 
Q 1081 -850 1212 -737 
Q 1344 -625 1503 -206 
L 1606 56 
L 191 3500 
L 800 3500 
L 1894 763 
L 2988 3500 
L 3597 3500 
L 2059 -325 
z
" transform="scale(0.015625)"/>
      <path id="DejaVuSans-3bc" d="M 544 -1331 
L 544 3500 
L 1119 3500 
L 1119 1325 
Q 1119 872 1334 640 
Q 1550 409 1972 409 
Q 2434 409 2667 671 
Q 2900 934 2900 1459 
L 2900 3500 
L 3475 3500 
L 3475 806 
Q 3475 619 3529 530 
Q 3584 441 3700 441 
Q 3728 441 3778 458 
Q 3828 475 3916 513 
L 3916 50 
Q 3788 -22 3673 -56 
Q 3559 -91 3450 -91 
Q 3234 -91 3106 31 
Q 2978 153 2931 403 
Q 2775 156 2548 32 
Q 2322 -91 2016 -91 
Q 1697 -91 1473 31 
Q 1250 153 1119 397 
L 1119 -1331 
L 544 -1331 
z
" transform="scale(0.015625)"/>
      <path id="DejaVuSans-28" d="M 1984 4856 
Q 1566 4138 1362 3434 
Q 1159 2731 1159 2009 
Q 1159 1288 1364 580 
Q 1569 -128 1984 -844 
L 1484 -844 
Q 1016 -109 783 600 
Q 550 1309 550 2009 
Q 550 2706 781 3412 
Q 1013 4119 1484 4856 
L 1984 4856 
z
" transform="scale(0.015625)"/>
      <path id="DejaVuSans-29" d="M 513 4856 
L 1013 4856 
Q 1481 4119 1714 3412 
Q 1947 2706 1947 2009 
Q 1947 1309 1714 600 
Q 1481 -109 1013 -844 
L 513 -844 
Q 928 -128 1133 580 
Q 1338 1288 1338 2009 
Q 1338 2731 1133 3434 
Q 928 4138 513 4856 
z
" transform="scale(0.015625)"/>
     </defs>
     <use xlink:href="#DejaVuSans-6d"/>
     <use xlink:href="#DejaVuSans-6f" transform="translate(97.412109 0)"/>
     <use xlink:href="#DejaVuSans-62" transform="translate(158.59375 0)"/>
     <use xlink:href="#DejaVuSans-69" transform="translate(222.070312 0)"/>
     <use xlink:href="#DejaVuSans-6c" transform="translate(249.853516 0)"/>
     <use xlink:href="#DejaVuSans-69" transform="translate(277.636719 0)"/>
     <use xlink:href="#DejaVuSans-74" transform="translate(305.419922 0)"/>
     <use xlink:href="#DejaVuSans-79" transform="translate(344.628906 0)"/>
     <use xlink:href="#DejaVuSans-20" transform="translate(403.808594 0)"/>
     <use xlink:href="#DejaVuSans-3bc" transform="translate(435.595703 0)"/>
     <use xlink:href="#DejaVuSans-28" transform="translate(499.21875 0)"/>
     <use xlink:href="#DejaVuSans-54" transform="translate(538.232422 0)"/>
     <use xlink:href="#DejaVuSans-29" transform="translate(599.316406 0)"/>
    </g>
   </g>
   <g id="text_15">
    <!-- 08 · EPW prtgkk -->
    <g style="fill: #1d2433" transform="translate(308.49675 437.048113) scale(0.108 -0.108)">
     <defs>
      <path id="DejaVuSans-Bold-38" d="M 2228 2088 
Q 1891 2088 1709 1903 
Q 1528 1719 1528 1375 
Q 1528 1031 1709 848 
Q 1891 666 2228 666 
Q 2563 666 2741 848 
Q 2919 1031 2919 1375 
Q 2919 1722 2741 1905 
Q 2563 2088 2228 2088 
z
M 1350 2484 
Q 925 2613 709 2878 
Q 494 3144 494 3541 
Q 494 4131 934 4440 
Q 1375 4750 2228 4750 
Q 3075 4750 3515 4442 
Q 3956 4134 3956 3541 
Q 3956 3144 3739 2878 
Q 3522 2613 3097 2484 
Q 3572 2353 3814 2058 
Q 4056 1763 4056 1313 
Q 4056 619 3595 264 
Q 3134 -91 2228 -91 
Q 1319 -91 855 264 
Q 391 619 391 1313 
Q 391 1763 633 2058 
Q 875 2353 1350 2484 
z
M 1631 3419 
Q 1631 3141 1786 2991 
Q 1941 2841 2228 2841 
Q 2509 2841 2662 2991 
Q 2816 3141 2816 3419 
Q 2816 3697 2662 3845 
Q 2509 3994 2228 3994 
Q 1941 3994 1786 3844 
Q 1631 3694 1631 3419 
z
" transform="scale(0.015625)"/>
      <path id="DejaVuSans-Bold-6b" d="M 538 4863 
L 1656 4863 
L 1656 2216 
L 2944 3500 
L 4244 3500 
L 2534 1894 
L 4378 0 
L 3022 0 
L 1656 1459 
L 1656 0 
L 538 0 
L 538 4863 
z
" transform="scale(0.015625)"/>
     </defs>
     <use xlink:href="#DejaVuSans-Bold-30"/>
     <use xlink:href="#DejaVuSans-Bold-38" transform="translate(69.580078 0)"/>
     <use xlink:href="#DejaVuSans-Bold-20" transform="translate(139.160156 0)"/>
     <use xlink:href="#DejaVuSans-Bold-b7" transform="translate(173.974609 0)"/>
     <use xlink:href="#DejaVuSans-Bold-20" transform="translate(211.962891 0)"/>
     <use xlink:href="#DejaVuSans-Bold-45" transform="translate(246.777344 0)"/>
     <use xlink:href="#DejaVuSans-Bold-50" transform="translate(315.087891 0)"/>
     <use xlink:href="#DejaVuSans-Bold-57" transform="translate(388.378906 0)"/>
     <use xlink:href="#DejaVuSans-Bold-20" transform="translate(498.681641 0)"/>
     <use xlink:href="#DejaVuSans-Bold-70" transform="translate(533.496094 0)"/>
     <use xlink:href="#DejaVuSans-Bold-72" transform="translate(605.078125 0)"/>
     <use xlink:href="#DejaVuSans-Bold-74" transform="translate(654.394531 0)"/>
     <use xlink:href="#DejaVuSans-Bold-67" transform="translate(702.197266 0)"/>
     <use xlink:href="#DejaVuSans-Bold-6b" transform="translate(773.779297 0)"/>
     <use xlink:href="#DejaVuSans-Bold-6b" transform="translate(840.283203 0)"/>
    </g>
   </g>
   <g id="text_16">
    <!-- mode-resolved |g(k,q,ν)| -->
    <g style="fill: #444c5e" transform="translate(303.480812 456.327173) scale(0.088 -0.088)">
     <defs>
      <path id="DejaVuSans-3bd" d="M 1300 0 
L 231 3500 
L 850 3500 
L 1753 563 
Q 2128 950 2441 1488 
Q 2678 1891 2691 2241 
Q 2697 2406 2622 2719 
Q 2534 3091 2203 3500 
L 2784 3500 
L 2784 3500 
Q 3000 3222 3144 2834 
Q 3275 2478 3275 2234 
Q 3275 1622 2850 1075 
Q 2297 363 1913 0 
L 1300 0 
z
" transform="scale(0.015625)"/>
     </defs>
     <use xlink:href="#DejaVuSans-6d"/>
     <use xlink:href="#DejaVuSans-6f" transform="translate(97.412109 0)"/>
     <use xlink:href="#DejaVuSans-64" transform="translate(158.59375 0)"/>
     <use xlink:href="#DejaVuSans-65" transform="translate(222.070312 0)"/>
     <use xlink:href="#DejaVuSans-2d" transform="translate(283.59375 0)"/>
     <use xlink:href="#DejaVuSans-72" transform="translate(319.677734 0)"/>
     <use xlink:href="#DejaVuSans-65" transform="translate(358.541016 0)"/>
     <use xlink:href="#DejaVuSans-73" transform="translate(420.064453 0)"/>
     <use xlink:href="#DejaVuSans-6f" transform="translate(472.164062 0)"/>
     <use xlink:href="#DejaVuSans-6c" transform="translate(533.345703 0)"/>
     <use xlink:href="#DejaVuSans-76" transform="translate(561.128906 0)"/>
     <use xlink:href="#DejaVuSans-65" transform="translate(620.308594 0)"/>
     <use xlink:href="#DejaVuSans-64" transform="translate(681.832031 0)"/>
     <use xlink:href="#DejaVuSans-20" transform="translate(745.308594 0)"/>
     <use xlink:href="#DejaVuSans-7c" transform="translate(777.095703 0)"/>
     <use xlink:href="#DejaVuSans-67" transform="translate(810.787109 0)"/>
     <use xlink:href="#DejaVuSans-28" transform="translate(874.263672 0)"/>
     <use xlink:href="#DejaVuSans-6b" transform="translate(913.277344 0)"/>
     <use xlink:href="#DejaVuSans-2c" transform="translate(971.1875 0)"/>
     <use xlink:href="#DejaVuSans-71" transform="translate(1002.974609 0)"/>
     <use xlink:href="#DejaVuSans-2c" transform="translate(1066.451172 0)"/>
     <use xlink:href="#DejaVuSans-3bd" transform="translate(1098.238281 0)"/>
     <use xlink:href="#DejaVuSans-29" transform="translate(1154.097656 0)"/>
     <use xlink:href="#DejaVuSans-7c" transform="translate(1193.111328 0)"/>
    </g>
   </g>
   <g id="text_17">
    <!-- 05 · DFPT single-q -->
    <g style="fill: #1d2433" transform="translate(398.302969 327.387793) scale(0.108 -0.108)">
     <defs>
      <path id="DejaVuSans-Bold-35" d="M 678 4666 
L 3669 4666 
L 3669 3781 
L 1638 3781 
L 1638 3059 
Q 1775 3097 1914 3117 
Q 2053 3138 2203 3138 
Q 3056 3138 3531 2711 
Q 4006 2284 4006 1522 
Q 4006 766 3489 337 
Q 2972 -91 2053 -91 
Q 1656 -91 1267 -14 
Q 878 63 494 219 
L 494 1166 
Q 875 947 1217 837 
Q 1559 728 1863 728 
Q 2300 728 2551 942 
Q 2803 1156 2803 1522 
Q 2803 1891 2551 2103 
Q 2300 2316 1863 2316 
Q 1603 2316 1309 2248 
Q 1016 2181 678 2041 
L 678 4666 
z
" transform="scale(0.015625)"/>
      <path id="DejaVuSans-Bold-73" d="M 3272 3391 
L 3272 2541 
Q 2913 2691 2578 2766 
Q 2244 2841 1947 2841 
Q 1628 2841 1473 2761 
Q 1319 2681 1319 2516 
Q 1319 2381 1436 2309 
Q 1553 2238 1856 2203 
L 2053 2175 
Q 2913 2066 3209 1816 
Q 3506 1566 3506 1031 
Q 3506 472 3093 190 
Q 2681 -91 1863 -91 
Q 1516 -91 1145 -36 
Q 775 19 384 128 
L 384 978 
Q 719 816 1070 734 
Q 1422 653 1784 653 
Q 2113 653 2278 743 
Q 2444 834 2444 1013 
Q 2444 1163 2330 1236 
Q 2216 1309 1875 1350 
L 1678 1375 
Q 931 1469 631 1722 
Q 331 1975 331 2491 
Q 331 3047 712 3315 
Q 1094 3584 1881 3584 
Q 2191 3584 2531 3537 
Q 2872 3491 3272 3391 
z
" transform="scale(0.015625)"/>
     </defs>
     <use xlink:href="#DejaVuSans-Bold-30"/>
     <use xlink:href="#DejaVuSans-Bold-35" transform="translate(69.580078 0)"/>
     <use xlink:href="#DejaVuSans-Bold-20" transform="translate(139.160156 0)"/>
     <use xlink:href="#DejaVuSans-Bold-b7" transform="translate(173.974609 0)"/>
     <use xlink:href="#DejaVuSans-Bold-20" transform="translate(211.962891 0)"/>
     <use xlink:href="#DejaVuSans-Bold-44" transform="translate(246.777344 0)"/>
     <use xlink:href="#DejaVuSans-Bold-46" transform="translate(329.785156 0)"/>
     <use xlink:href="#DejaVuSans-Bold-50" transform="translate(398.095703 0)"/>
     <use xlink:href="#DejaVuSans-Bold-54" transform="translate(471.386719 0)"/>
     <use xlink:href="#DejaVuSans-Bold-20" transform="translate(539.599609 0)"/>
     <use xlink:href="#DejaVuSans-Bold-73" transform="translate(574.414062 0)"/>
     <use xlink:href="#DejaVuSans-Bold-69" transform="translate(633.935547 0)"/>
     <use xlink:href="#DejaVuSans-Bold-6e" transform="translate(668.212891 0)"/>
     <use xlink:href="#DejaVuSans-Bold-67" transform="translate(739.404297 0)"/>
     <use xlink:href="#DejaVuSans-Bold-6c" transform="translate(810.986328 0)"/>
     <use xlink:href="#DejaVuSans-Bold-65" transform="translate(845.263672 0)"/>
     <use xlink:href="#DejaVuSans-Bold-2d" transform="translate(913.085938 0)"/>
     <use xlink:href="#DejaVuSans-Bold-71" transform="translate(954.589844 0)"/>
    </g>
   </g>
   <g id="text_18">
    <!-- exact |g| reference -->
    <g style="fill: #444c5e" transform="translate(412.080562 346.666853) scale(0.088 -0.088)">
     <use xlink:href="#DejaVuSans-65"/>
     <use xlink:href="#DejaVuSans-78" transform="translate(59.773438 0)"/>
     <use xlink:href="#DejaVuSans-61" transform="translate(118.953125 0)"/>
     <use xlink:href="#DejaVuSans-63" transform="translate(180.232422 0)"/>
     <use xlink:href="#DejaVuSans-74" transform="translate(235.212891 0)"/>
     <use xlink:href="#DejaVuSans-20" transform="translate(274.421875 0)"/>
     <use xlink:href="#DejaVuSans-7c" transform="translate(306.208984 0)"/>
     <use xlink:href="#DejaVuSans-67" transform="translate(339.900391 0)"/>
     <use xlink:href="#DejaVuSans-7c" transform="translate(403.376953 0)"/>
     <use xlink:href="#DejaVuSans-20" transform="translate(437.068359 0)"/>
     <use xlink:href="#DejaVuSans-72" transform="translate(468.855469 0)"/>
     <use xlink:href="#DejaVuSans-65" transform="translate(507.71875 0)"/>
     <use xlink:href="#DejaVuSans-66" transform="translate(569.242188 0)"/>
     <use xlink:href="#DejaVuSans-65" transform="translate(604.447266 0)"/>
     <use xlink:href="#DejaVuSans-72" transform="translate(665.970703 0)"/>
     <use xlink:href="#DejaVuSans-65" transform="translate(704.833984 0)"/>
     <use xlink:href="#DejaVuSans-6e" transform="translate(766.357422 0)"/>
     <use xlink:href="#DejaVuSans-63" transform="translate(829.736328 0)"/>
     <use xlink:href="#DejaVuSans-65" transform="translate(884.716797 0)"/>
    </g>
   </g>
   <g id="text_19">
    <!-- benchmark -->
    <g style="fill: #c97f1e" transform="translate(409.515118 399.314144) rotate(-49) scale(0.09 -0.09)">
     <defs>
      <path id="DejaVuSans-Oblique-62" d="M 3169 2138 
Q 3169 2591 2961 2847 
Q 2753 3103 2388 3103 
Q 2122 3103 1889 2973 
Q 1656 2844 1484 2597 
Q 1303 2338 1198 1995 
Q 1094 1653 1094 1313 
Q 1094 881 1298 636 
Q 1503 391 1863 391 
Q 2134 391 2365 517 
Q 2597 644 2772 891 
Q 2950 1147 3059 1487 
Q 3169 1828 3169 2138 
z
M 1381 2969 
Q 1594 3256 1914 3420 
Q 2234 3584 2584 3584 
Q 3122 3584 3439 3221 
Q 3756 2859 3756 2241 
Q 3756 1734 3570 1259 
Q 3384 784 3041 416 
Q 2816 172 2522 40 
Q 2228 -91 1906 -91 
Q 1566 -91 1316 65 
Q 1066 222 909 531 
L 806 0 
L 231 0 
L 1178 4863 
L 1753 4863 
L 1381 2969 
z
" transform="scale(0.015625)"/>
      <path id="DejaVuSans-Oblique-65" d="M 3078 2063 
Q 3088 2113 3092 2166 
Q 3097 2219 3097 2272 
Q 3097 2653 2873 2875 
Q 2650 3097 2266 3097 
Q 1838 3097 1509 2826 
Q 1181 2556 1013 2059 
L 3078 2063 
z
M 3578 1613 
L 903 1613 
Q 884 1494 878 1425 
Q 872 1356 872 1306 
Q 872 872 1139 634 
Q 1406 397 1894 397 
Q 2269 397 2603 481 
Q 2938 566 3225 728 
L 3116 159 
Q 2806 34 2476 -28 
Q 2147 -91 1806 -91 
Q 1078 -91 686 257 
Q 294 606 294 1247 
Q 294 1794 489 2264 
Q 684 2734 1063 3103 
Q 1306 3334 1642 3459 
Q 1978 3584 2356 3584 
Q 2950 3584 3301 3228 
Q 3653 2872 3653 2272 
Q 3653 2128 3634 1964 
Q 3616 1800 3578 1613 
z
" transform="scale(0.015625)"/>
      <path id="DejaVuSans-Oblique-6e" d="M 3566 2113 
L 3156 0 
L 2578 0 
L 2988 2091 
Q 3016 2238 3031 2350 
Q 3047 2463 3047 2528 
Q 3047 2791 2881 2937 
Q 2716 3084 2419 3084 
Q 1956 3084 1622 2776 
Q 1288 2469 1184 1941 
L 800 0 
L 225 0 
L 903 3500 
L 1478 3500 
L 1363 2950 
Q 1603 3253 1940 3418 
Q 2278 3584 2650 3584 
Q 3113 3584 3367 3334 
Q 3622 3084 3622 2631 
Q 3622 2519 3608 2391 
Q 3594 2263 3566 2113 
z
" transform="scale(0.015625)"/>
      <path id="DejaVuSans-Oblique-63" d="M 3431 3366 
L 3316 2797 
Q 3109 2947 2876 3022 
Q 2644 3097 2394 3097 
Q 2119 3097 1870 3000 
Q 1622 2903 1453 2725 
Q 1184 2453 1037 2087 
Q 891 1722 891 1331 
Q 891 859 1127 628 
Q 1363 397 1844 397 
Q 2081 397 2348 469 
Q 2616 541 2906 684 
L 2797 116 
Q 2547 13 2283 -39 
Q 2019 -91 1741 -91 
Q 1044 -91 669 257 
Q 294 606 294 1253 
Q 294 1797 489 2255 
Q 684 2713 1069 3078 
Q 1331 3328 1684 3456 
Q 2038 3584 2456 3584 
Q 2700 3584 2940 3529 
Q 3181 3475 3431 3366 
z
" transform="scale(0.015625)"/>
      <path id="DejaVuSans-Oblique-68" d="M 3566 2113 
L 3156 0 
L 2578 0 
L 2988 2091 
Q 3016 2238 3031 2350 
Q 3047 2463 3047 2528 
Q 3047 2791 2881 2937 
Q 2716 3084 2419 3084 
Q 1956 3084 1617 2771 
Q 1278 2459 1178 1941 
L 800 0 
L 225 0 
L 1172 4863 
L 1747 4863 
L 1375 2950 
Q 1594 3244 1934 3414 
Q 2275 3584 2650 3584 
Q 3113 3584 3367 3334 
Q 3622 3084 3622 2631 
Q 3622 2519 3608 2391 
Q 3594 2263 3566 2113 
z
" transform="scale(0.015625)"/>
      <path id="DejaVuSans-Oblique-6d" d="M 5747 2113 
L 5338 0 
L 4763 0 
L 5166 2094 
Q 5191 2228 5203 2325 
Q 5216 2422 5216 2491 
Q 5216 2772 5059 2928 
Q 4903 3084 4622 3084 
Q 4203 3084 3875 2770 
Q 3547 2456 3450 1953 
L 3066 0 
L 2491 0 
L 2900 2094 
Q 2925 2209 2937 2307 
Q 2950 2406 2950 2484 
Q 2950 2769 2794 2926 
Q 2638 3084 2363 3084 
Q 1938 3084 1609 2770 
Q 1281 2456 1184 1953 
L 800 0 
L 225 0 
L 909 3500 
L 1484 3500 
L 1375 2956 
Q 1609 3263 1923 3423 
Q 2238 3584 2597 3584 
Q 2978 3584 3223 3384 
Q 3469 3184 3519 2828 
Q 3781 3197 4126 3390 
Q 4472 3584 4856 3584 
Q 5306 3584 5551 3325 
Q 5797 3066 5797 2591 
Q 5797 2488 5784 2364 
Q 5772 2241 5747 2113 
z
" transform="scale(0.015625)"/>
      <path id="DejaVuSans-Oblique-61" d="M 3438 1997 
L 3047 0 
L 2472 0 
L 2578 531 
Q 2325 219 2001 64 
Q 1678 -91 1281 -91 
Q 834 -91 548 182 
Q 263 456 263 884 
Q 263 1497 752 1853 
Q 1241 2209 2100 2209 
L 2900 2209 
L 2931 2363 
Q 2938 2388 2941 2417 
Q 2944 2447 2944 2509 
Q 2944 2788 2717 2942 
Q 2491 3097 2081 3097 
Q 1800 3097 1504 3025 
Q 1209 2953 897 2809 
L 997 3341 
Q 1322 3463 1633 3523 
Q 1944 3584 2234 3584 
Q 2853 3584 3176 3315 
Q 3500 3047 3500 2534 
Q 3500 2431 3484 2292 
Q 3469 2153 3438 1997 
z
M 2816 1759 
L 2241 1759 
Q 1534 1759 1195 1570 
Q 856 1381 856 984 
Q 856 709 1029 553 
Q 1203 397 1509 397 
Q 1978 397 2328 733 
Q 2678 1069 2791 1631 
L 2816 1759 
z
" transform="scale(0.015625)"/>
      <path id="DejaVuSans-Oblique-72" d="M 2853 2969 
Q 2766 3016 2653 3041 
Q 2541 3066 2413 3066 
Q 1953 3066 1609 2717 
Q 1266 2369 1153 1784 
L 800 0 
L 225 0 
L 909 3500 
L 1484 3500 
L 1375 2956 
Q 1603 3259 1920 3421 
Q 2238 3584 2597 3584 
Q 2691 3584 2781 3573 
Q 2872 3563 2963 3538 
L 2853 2969 
z
" transform="scale(0.015625)"/>
      <path id="DejaVuSans-Oblique-6b" d="M 1172 4863 
L 1747 4863 
L 1197 2028 
L 3169 3500 
L 3916 3500 
L 1716 1825 
L 3322 0 
L 2625 0 
L 1131 1709 
L 800 0 
L 225 0 
L 1172 4863 
z
" transform="scale(0.015625)"/>
     </defs>
     <use xlink:href="#DejaVuSans-Oblique-62"/>
     <use xlink:href="#DejaVuSans-Oblique-65" transform="translate(63.476562 0)"/>
     <use xlink:href="#DejaVuSans-Oblique-6e" transform="translate(125 0)"/>
     <use xlink:href="#DejaVuSans-Oblique-63" transform="translate(188.378906 0)"/>
     <use xlink:href="#DejaVuSans-Oblique-68" transform="translate(243.359375 0)"/>
     <use xlink:href="#DejaVuSans-Oblique-6d" transform="translate(306.738281 0)"/>
     <use xlink:href="#DejaVuSans-Oblique-61" transform="translate(404.150391 0)"/>
     <use xlink:href="#DejaVuSans-Oblique-72" transform="translate(465.429688 0)"/>
     <use xlink:href="#DejaVuSans-Oblique-6b" transform="translate(506.542969 0)"/>
    </g>
   </g>
  </g>
 </g>
 <defs>
  <clipPath id="p95e02a62b8">
   <rect x="7.2" y="7.2" width="513.36" height="510.048"/>
  </clipPath>
 </defs>
</svg>
